<svg style="max-height: 500px" viewBox="166.66699887429644 177.881088 689.7879174484052 625.82784" version="1.1" xmlns="http://www.w3.org/2000/svg" width="689.7879174484052" height="625.82784">
<path d="M0 0 C337.92 0 675.84 0 1024 0 C1024 337.92 1024 675.84 1024 1024 C686.08 1024 348.16 1024 0 1024 C0 686.08 0 348.16 0 0 Z" fill="#FEFEFE" transform="translate(0,0)"/>
<path d="M0 0 C0.92069087 -0.00327219 1.84138174 -0.00654439 2.78997234 -0.00991574 C4.30485236 -0.0076903 4.30485236 -0.0076903 5.85033602 -0.00541991 C6.92883824 -0.00777214 8.00734047 -0.01012437 9.11852458 -0.01254788 C12.76333756 -0.01925006 16.408115 -0.01877929 20.05293363 -0.01836985 C22.68016942 -0.02166772 25.3074047 -0.02539312 27.93463933 -0.02951133 C34.41780734 -0.03884328 40.90096851 -0.04276038 47.38414239 -0.0450303 C55.14747394 -0.04799083 62.91079641 -0.05668736 70.67412321 -0.06544458 C89.43985058 -0.08629618 108.20557954 -0.09675992 126.9713158 -0.10557419 C135.84751226 -0.10977969 144.72370805 -0.11500181 153.59990394 -0.12025872 C183.97933158 -0.13814956 214.35875942 -0.15314592 244.73819155 -0.16057891 C246.64569489 -0.16105366 248.55319824 -0.16152955 250.46070158 -0.16200657 C251.87963817 -0.16236113 251.87963817 -0.16236113 253.32724015 -0.16272286 C258.11999553 -0.16392407 262.9127509 -0.16513951 267.70550627 -0.16636485 C268.65664601 -0.166605 269.60778575 -0.16684515 270.58774791 -0.16709258 C301.42830097 -0.17498609 332.26881558 -0.19841868 363.10935185 -0.23092079 C395.70945968 -0.2652146 428.30954502 -0.28492963 460.90967119 -0.28822315 C464.48810505 -0.28864069 468.0665389 -0.28912026 471.64497274 -0.28964633 C472.52609509 -0.28976952 473.40721745 -0.28989271 474.31504048 -0.29001964 C488.49820264 -0.29235223 502.68132016 -0.30801548 516.86446641 -0.32848817 C531.11994262 -0.34873887 545.37536519 -0.35422705 559.63085312 -0.34471754 C568.10029479 -0.33949963 576.56955792 -0.3453937 585.03897391 -0.36725221 C590.69835938 -0.3807547 596.35762189 -0.37968821 602.01700857 -0.36685025 C605.24041808 -0.35994984 608.46341812 -0.36151235 611.6868105 -0.37641034 C615.16443087 -0.39148868 618.64115513 -0.38188354 622.11875337 -0.36618346 C623.11228523 -0.37640567 624.10581708 -0.38662787 625.12945595 -0.39715984 C638.59052663 -0.26451126 650.77140687 6.1384474 660.54998869 15.16786367 C668.78580879 23.78115886 675.54400347 36.18321181 675.55263919 48.36282426 C675.55565516 49.20728779 675.55867112 50.05175133 675.56177849 50.92180467 C675.56000901 51.84640853 675.55823954 52.77101238 675.55641645 53.72363454 C675.5594954 55.20671278 675.5594954 55.20671278 675.56263655 56.71975219 C675.56832671 60.05915779 675.56684682 63.39852241 675.56543058 66.73793203 C675.56801307 69.14584063 675.5710259 71.55374881 675.57443398 73.96165639 C675.58167185 79.9023641 675.58420728 85.84306346 675.58476304 91.78377455 C675.58567623 98.89789191 675.5923425 106.01200095 675.59910986 113.12611473 C675.61517777 130.32291556 675.62107425 147.5197155 675.62585861 164.71652248 C675.62819399 172.85158802 675.6317966 180.98665284 675.63555399 189.12171783 C675.64839084 216.9675331 675.6591094 244.81334799 675.66255659 272.65916616 C675.66277822 274.40754328 675.66300001 276.15592041 675.66322194 277.90429753 C675.66344258 279.65691032 675.66366306 281.40952311 675.66388339 283.1621359 C675.66432594 286.67820531 675.66477306 290.19427472 675.66522306 293.71034414 C675.66533245 294.58212646 675.66544184 295.45390878 675.66555455 296.35210875 C675.66918459 324.61506954 675.68510197 352.87800467 675.70841343 381.14095564 C675.7330128 411.02001911 675.7467295 440.89906791 675.74792451 470.7781418 C675.74809596 474.05861265 675.74831139 477.33908349 675.74855894 480.61955434 C675.74861471 481.42730229 675.74867048 482.23505025 675.74872793 483.06727541 C675.74987836 496.06376456 675.76089978 509.06022738 675.77544599 522.05670764 C675.78981682 535.12253619 675.79304469 548.18833101 675.78500602 561.25416529 C675.78055234 569.0146203 675.78439983 576.77496637 675.80024452 584.53540706 C675.81115423 590.3334719 675.80634513 596.13143952 675.79547265 601.92950052 C675.79351159 604.27278366 675.79661292 606.61607772 675.80531701 608.95934552 C675.87451991 628.85080676 674.35682967 645.7510361 659.83514494 660.87880117 C650.58876856 669.51075059 638.6779961 676.24547592 625.75257766 676.25760233 C624.83562939 676.26087453 623.91868112 676.26414672 622.97394654 676.26751807 C621.97335677 676.26603445 620.972767 676.26455083 619.94185632 676.26302224 C618.86925334 676.26537447 617.79665036 676.2677267 616.69154426 676.27015021 C613.07281071 676.27684337 609.45411304 676.27638189 605.83537382 676.27597219 C603.22448687 676.27927061 600.61360042 676.28299613 598.00271463 676.28711367 C591.56383343 676.29643956 585.12495909 676.30036169 578.68607198 676.30263263 C570.97489267 676.30559472 563.2637225 676.31429216 555.55254798 676.32304691 C536.91381858 676.34389181 518.27508759 676.35436109 499.63634925 676.36317652 C490.81938209 676.36738287 482.00241561 676.37260487 473.18544903 676.37786105 C443.00565836 676.39575107 412.8258675 676.41074732 382.64607233 676.41818124 C380.75135396 676.418656 378.85663559 676.41913189 376.96191723 676.4196089 C376.02230561 676.41984528 375.08269399 676.42008165 374.1146093 676.42032519 C369.35405542 676.42152639 364.59350154 676.42274184 359.83294767 676.42396718 C358.88820094 676.42420733 357.94345422 676.42444748 356.9700788 676.42469491 C326.33720568 676.43258833 295.70437128 676.45602114 265.07151506 676.48852313 C232.68687282 676.52282108 200.30225323 676.54253233 167.91759253 676.54582548 C164.36246678 676.54624302 160.80734105 676.54672259 157.25221533 676.54724866 C156.3768395 676.54737185 155.50146367 676.54749504 154.59956131 676.54762197 C140.51242426 676.549954 126.42533218 676.56561408 112.33821116 676.58609051 C98.17805724 676.60634654 84.01795732 676.61182685 69.8577916 676.60231987 C61.44632099 676.59710411 53.0350302 676.60298594 44.62358548 676.62485455 C38.34093733 676.63995354 32.05847143 676.63412158 25.77582426 676.62018403 C23.2353971 676.61779886 20.69495269 676.62217829 18.15455198 676.63401268 C14.69906392 676.64911268 11.24447517 676.63947095 7.78900903 676.62378579 C6.80480743 676.634008 5.82060582 676.64423021 4.80657992 676.65476218 C-10.96335061 676.49873915 -23.73572152 669.09757054 -34.57501131 658.12880117 C-43.77037232 647.98981141 -47.8923747 635.58876005 -47.83228022 622.12076551 C-47.83578629 621.12381962 -47.83929237 620.12687374 -47.84290469 619.09971738 C-47.85222791 615.7503376 -47.8472929 612.40113134 -47.84243685 609.05174428 C-47.84617264 606.62958384 -47.85077388 604.20742461 -47.8561675 601.78526729 C-47.86586117 596.51435548 -47.86931127 591.24349424 -47.86725527 585.97257787 C-47.86420528 578.13424648 -47.87252927 570.29595574 -47.88300452 562.45763225 C-47.90234989 547.64288141 -47.90797296 532.8281444 -47.90911864 518.01338242 C-47.91003769 506.57153296 -47.91415418 495.12968893 -47.92051989 483.68784124 C-47.92231498 480.3944003 -47.92409461 477.10095937 -47.92586964 473.80751842 C-47.92631174 472.98875574 -47.92675384 472.16999306 -47.92720933 471.32641938 C-47.9395186 448.29441341 -47.94741038 425.26240932 -47.94652277 402.23039991 C-47.94649161 401.36196803 -47.94646046 400.49353615 -47.94642836 399.59878815 C-47.94626214 395.19721647 -47.94606406 390.79564479 -47.94585894 386.39407311 C-47.94581905 385.51990653 -47.94577916 384.64573995 -47.94573806 383.74508348 C-47.94565719 381.97730467 -47.94557359 380.20952585 -47.94548728 378.44174704 C-47.94426199 350.94304211 -47.95927045 323.44438651 -47.98663241 295.9456957 C-48.01736182 265.05000404 -48.03456435 234.1543448 -48.03270596 203.25863689 C-48.0325567 199.96330982 -48.03245929 196.66798276 -48.03239733 193.37265569 C-48.03237402 192.56126521 -48.03235071 191.74987473 -48.0323267 190.91389666 C-48.03226518 177.86290293 -48.04503086 164.81195207 -48.06226186 151.76097108 C-48.07922599 138.6405913 -48.0811861 125.52027414 -48.06804322 112.39988945 C-48.06065901 104.60849524 -48.06429608 96.81729144 -48.0839279 89.02591744 C-48.09735774 83.20317577 -48.0898025 77.38058255 -48.07418145 71.55784227 C-48.0711064 69.20588299 -48.07476285 66.85390305 -48.0859016 64.50196813 C-48.17098905 45.25843841 -46.13713034 29.7614566 -32.53985506 15.00380117 C-24.02839029 6.88152862 -12.02778906 0.01120785 0 0 Z" fill="#1B1B1B" transform="translate(198.57501131296158,149.87119883298874)"/>
<path d="M0 0 C1.13411316 -0.00990463 2.26822632 -0.01980927 3.43670654 -0.03001404 C5.28912712 -0.02326157 5.28912712 -0.02326157 7.17897034 -0.01637268 C8.48679474 -0.02323593 9.79461914 -0.03009918 11.14207458 -0.03717041 C14.72271694 -0.05509483 18.30311414 -0.05393484 21.88378787 -0.04822803 C24.87582632 -0.04513503 27.86781776 -0.05122987 30.85984951 -0.05726677 C37.91987627 -0.0713081 44.97978202 -0.0697541 52.03981018 -0.05836487 C59.31705915 -0.04688445 66.59393955 -0.06095865 73.87113994 -0.08776134 C80.12523695 -0.10993121 86.37921836 -0.11655283 92.63335186 -0.11068493 C96.36598319 -0.10731713 100.09837829 -0.10971834 103.83097649 -0.12693596 C107.99408619 -0.14530174 112.1564806 -0.1312049 116.31959534 -0.11402893 C117.55251816 -0.1236969 118.78544098 -0.13336487 120.0557251 -0.14332581 C130.69164753 -0.0513282 130.69164753 -0.0513282 135.3139801 4.38768005 C137.80849017 7.93889998 138.68951254 10.33543906 138.69493103 14.66282654 C138.7033905 15.70582916 138.71184998 16.74883179 138.7205658 17.82344055 C138.71145676 19.52393051 138.71145676 19.52393051 138.7021637 21.2587738 C138.71004913 23.06198593 138.71004913 23.06198593 138.71809387 24.90162659 C138.72902304 28.1909404 138.7264785 31.47989111 138.71695662 34.76919937 C138.70934813 38.21552021 138.71640892 41.66181722 138.72111511 45.10813904 C138.72656922 50.89504841 138.71939018 56.68184283 138.70509338 62.46873474 C138.68876743 69.15406348 138.69405619 75.83911772 138.7105726 82.52443981 C138.72419737 88.26981801 138.72610232 94.01511368 138.71825659 99.76050282 C138.71358549 103.18956818 138.71293963 106.61850462 138.72286606 110.04756165 C138.73047552 113.87075927 138.71888235 117.69342811 138.7021637 121.5165863 C138.70823639 122.65024628 138.71430908 123.78390625 138.7205658 124.95191956 C138.70787659 126.51642349 138.70787659 126.51642349 138.69493103 128.11253357 C138.69379995 129.01584915 138.69266888 129.91916473 138.69150352 130.84985352 C138.0479697 135.17588238 135.64667949 138.61043057 132.3139801 141.38768005 C129.22936929 142.41588366 127.10139667 142.52082451 123.86846924 142.53485107 C122.73710541 142.54200638 121.60574158 142.54916168 120.44009399 142.55653381 C119.19795639 142.55922272 117.95581879 142.56191162 116.67604065 142.56468201 C115.3685083 142.5712532 114.06097595 142.5778244 112.71382141 142.58459473 C108.37612634 142.60561775 104.03843098 142.61599486 99.70069885 142.6259613 C98.20660191 142.63000939 96.71250515 142.63412633 95.21840858 142.63831139 C88.1992876 142.65735851 81.1801771 142.67159103 74.16103524 142.67992336 C66.06173949 142.68969704 57.96271694 142.71602174 49.86351746 142.75642425 C43.6009923 142.78659146 37.33854543 142.80139276 31.07594901 142.80470437 C27.33654741 142.80705402 23.59743783 142.81600306 19.85811424 142.84116554 C15.68526907 142.8687922 11.51303397 142.86461332 7.34010315 142.85765076 C6.10403824 142.87046082 4.86797333 142.88327087 3.5944519 142.89646912 C-7.19038617 142.83076775 -7.19038617 142.83076775 -11.6860199 138.38768005 C-15.68340702 132.96844649 -15.11603818 126.96595318 -15.09007263 120.51072693 C-15.09693588 119.31979935 -15.10379913 118.12887177 -15.11087036 116.90185547 C-15.12600241 113.64766605 -15.12764171 110.39383705 -15.12192798 107.13962746 C-15.11883053 104.4184379 -15.12493461 101.69729983 -15.13096672 98.97611761 C-15.14499599 92.55515576 -15.14346356 86.13432701 -15.13206482 79.71336365 C-15.12057995 73.09784337 -15.1346687 66.48272831 -15.16146129 59.86726141 C-15.18363709 54.17789281 -15.19025163 48.48865124 -15.18438488 42.7992425 C-15.18101916 39.40531866 -15.18340455 36.01165466 -15.20063591 32.61776733 C-15.21550303 28.8330819 -15.20489907 25.04929052 -15.18772888 21.26463318 C-15.19739685 20.14549026 -15.20706482 19.02634735 -15.21702576 17.87329102 C-15.16039542 11.91597127 -14.9424105 7.9501668 -10.6860199 3.38768005 C-7.00437084 0.76616659 -4.49877505 0.01111908 0 0 Z" fill="#E8E0CE" transform="translate(237.68601989746094,617.6123199462891)"/>
<path d="M0 0 C7.23345783 2.81241954 13.83569772 7.0164565 20.44311523 11.04638672 C26.93680309 15.00187523 33.53121087 18.77696939 40.125 22.5625 C43.45139292 24.48117252 46.77646117 26.40210788 50.10058594 28.32470703 C51.84697024 29.33377482 53.59462603 30.3406531 55.34472656 31.34326172 C70.31416454 39.94249361 70.31416454 39.94249361 73 48 C73.11110654 50.47741676 73.16760585 52.92748119 73.17700195 55.40551758 C73.18357315 56.15709641 73.19014435 56.90867523 73.19691467 57.68302917 C73.21662468 60.17019757 73.22830487 62.65730566 73.23828125 65.14453125 C73.24235678 65.99483099 73.2464323 66.84513073 73.25063133 67.72119713 C73.27148188 72.22143688 73.28578821 76.72164623 73.29516602 81.22192383 C73.30623079 85.86577764 73.34063415 90.50915234 73.38033772 95.1528368 C73.406503 98.72768535 73.41485774 102.30241969 73.41844749 105.87735558 C73.42331338 107.5889478 73.43492748 109.30053493 73.45348549 111.01203346 C73.47787677 113.41050662 73.4769125 115.80773919 73.4699707 118.20629883 C73.48918579 119.26090805 73.48918579 119.26090805 73.50878906 120.33682251 C73.45619326 125.33761946 72.09712703 128.12982664 69 132 C62.2949175 137.84285788 54.01659946 142.01192657 46.3125 146.375 C43.99869601 147.69564743 41.68696219 149.01987699 39.375 150.34375 C38.27285156 150.97410156 37.17070313 151.60445312 36.03515625 152.25390625 C29.28512438 156.13712922 22.63462198 160.18360173 15.97998047 164.22753906 C13.90474037 165.48738614 11.82740735 166.74373086 9.75 168 C9.11682861 168.38655762 8.48365723 168.77311523 7.83129883 169.17138672 C2.53321563 172.37386744 -1.78289104 173.78151539 -8 173 C-10.83111178 172.0125172 -13.34416925 170.61921146 -15.9375 169.125 C-17.04689941 168.51108398 -17.04689941 168.51108398 -18.17871094 167.88476562 C-20.46481107 166.61029148 -22.73424652 165.31025515 -25 164 C-25.97573975 163.43877441 -25.97573975 163.43877441 -26.97119141 162.86621094 C-30.29854364 160.94450402 -33.60670904 158.9924641 -36.90625 157.0234375 C-41.03543608 154.56207159 -45.18710414 152.14110097 -49.34375 149.7265625 C-51.32034154 148.57618708 -53.29673281 147.42546831 -55.27307129 146.2746582 C-56.5814858 145.51376608 -57.89063951 144.75414353 -59.20056152 143.99584961 C-61.05778756 142.92024523 -62.91195964 141.83953869 -64.765625 140.7578125 C-65.84618164 140.1302002 -66.92673828 139.50258789 -68.04003906 138.85595703 C-73.4212432 135.48183019 -76.55095952 132.9651277 -79 127 C-79.27904399 124.27146932 -79.41119036 121.77702539 -79.38818359 119.05444336 C-79.39344055 118.28131302 -79.39869751 117.50818268 -79.40411377 116.71162415 C-79.41725536 114.17082166 -79.40859756 111.63065196 -79.3984375 109.08984375 C-79.40045971 107.31677633 -79.40337238 105.54370972 -79.40713501 103.77064514 C-79.41155026 100.06112725 -79.40515232 96.35182657 -79.39111328 92.64233398 C-79.37400932 87.89201316 -79.38387521 83.14220042 -79.40183067 78.39189816 C-79.41267946 74.73299848 -79.40921737 71.07421896 -79.4014473 67.41531563 C-79.39944896 65.66385398 -79.40189167 63.91238136 -79.40888596 62.16093254 C-79.41651992 59.71238229 -79.4048701 57.26465146 -79.38818359 54.81616211 C-79.39425629 54.09550568 -79.40032898 53.37484924 -79.40658569 52.63235474 C-79.34095711 47.42414039 -78.06741833 44.28656395 -74.60424805 40.45629883 C-69.13625954 35.76832975 -63.03440028 32.27928017 -56.8125 28.6875 C-54.40685621 27.28465786 -52.00423348 25.87667612 -49.6015625 24.46875 C-48.98385483 24.10762619 -48.36614716 23.74650238 -47.72972107 23.37443542 C-40.05187778 18.87673828 -32.46432351 14.22969959 -24.8788147 9.57846069 C-23.17428232 8.53347529 -21.4680309 7.4912955 -19.76171875 6.44921875 C-18.79194092 5.85455811 -17.82216309 5.25989746 -16.82299805 4.6472168 C-6.57176481 -1.33436849 -6.57176481 -1.33436849 0 0 Z" fill="#E8E0CE" transform="translate(739,197)"/>
<path d="M0 0 C4.43993959 -0.70145091 8.94869469 -0.50920309 13.4375 -0.5 C14.69111328 -0.52835937 15.94472656 -0.55671875 17.23632812 -0.5859375 C19.03553711 -0.58980469 19.03553711 -0.58980469 20.87109375 -0.59375 C21.97380615 -0.60083984 23.07651855 -0.60792969 24.21264648 -0.61523438 C27 0 27 0 28.55206299 2.2013855 C29.95296021 4.90908014 30.99661223 7.50153007 31.9543457 10.39306641 C32.30989029 11.45682495 32.66543488 12.5205835 33.03175354 13.61657715 C33.40928268 14.76662231 33.78681183 15.91666748 34.17578125 17.1015625 C34.57735947 18.30913208 34.97893768 19.51670166 35.39268494 20.76086426 C36.48054678 24.03309839 37.56078218 27.30780229 38.63935852 30.58310699 C39.5425222 33.32274443 40.44996995 36.06095448 41.35745811 38.79916191 C44.25049608 47.52877096 47.12787558 56.26349107 50 65 C50.52868683 66.6072998 50.52868683 66.6072998 51.0680542 68.24707031 C56.84710481 85.8230259 62.54565702 103.42406557 68.16796875 121.05078125 C68.52365936 122.16523621 68.87934998 123.27969116 69.24581909 124.42791748 C70.9713254 129.83549298 72.69365228 135.2440354 74.40917969 140.65478516 C77.41918605 150.12643311 80.48061043 159.57755828 83.72265625 168.97265625 C83.99387802 169.76892929 84.26509979 170.56520233 84.54454041 171.38560486 C87.8000802 181.09232582 87.8000802 181.09232582 94 189 C96.54761904 189.89187312 99.10310603 190.51001735 101.72265625 191.15625 C104 192 104 192 106 195 C106.25 198.0625 106.25 198.0625 106 201 C103.19274305 203.80725695 101.4194321 203.25971107 97.48657227 203.2746582 C96.81810272 203.27976913 96.14963318 203.28488007 95.46090698 203.29014587 C93.24598292 203.30407272 91.03136895 203.3030828 88.81640625 203.30078125 C87.27945337 203.30466662 85.74250156 203.30900096 84.20555115 203.31376648 C80.9816439 203.32123542 77.75784615 203.32093267 74.53393555 203.31567383 C70.39985576 203.30987953 66.26622405 203.32680559 62.13221836 203.3500185 C58.95722324 203.36474178 55.78233636 203.36562946 52.60731316 203.36250877 C51.08305919 203.36302274 49.55879927 203.36827461 48.03457832 203.37832069 C45.90369589 203.39064053 43.77369038 203.38392119 41.64282227 203.37231445 C40.42973892 203.37294388 39.21665558 203.3735733 37.96681213 203.3742218 C35 203 35 203 33.08482361 201.66423035 C32 200 32 200 32 197 C33 194 33 194 34.875 192.3125 C38.72607943 190.69504664 42.6223728 189.65539928 46.671875 188.6484375 C48.94224397 188.22157422 48.94224397 188.22157422 50 187 C49.90822281 180.68602706 48.24276303 174.82485436 46.27734375 168.87890625 C46.01240616 168.05293442 45.74746857 167.22696259 45.47450256 166.3759613 C44.63683949 163.76880928 43.78780646 161.16555286 42.9375 158.5625 C42.08563566 155.9338557 41.23620641 153.3044592 40.38978577 150.67405701 C39.86478109 149.04468485 39.33627889 147.41643465 38.80393982 145.78944397 C37 140.22141668 37 140.22141668 37 138 C15.55 138 -5.9 138 -28 138 C-28.99 141.63 -29.98 145.26 -31 149 C-31.72085798 151.14809344 -32.4693317 153.28740699 -33.26171875 155.41015625 C-33.65810547 156.50263672 -34.05449219 157.59511719 -34.46289062 158.72070312 C-35.28195298 160.95581586 -36.11015021 163.18760142 -36.94726562 165.41601562 C-39.22961476 171.76087128 -41.49140484 178.20473038 -40 185 C-37.30100102 188.47653341 -34.19114919 188.9522127 -30 190 C-22.02346041 191.9941349 -22.02346041 191.9941349 -20 195 C-19.75 198.625 -19.75 198.625 -20 202 C-21.77687645 203.77687645 -24.36879254 203.13687972 -26.77319336 203.14526367 C-28.62532692 203.15483345 -28.62532692 203.15483345 -30.51487732 203.16459656 C-31.87319907 203.16612512 -33.23152134 203.16723914 -34.58984375 203.16796875 C-35.97367895 203.1711797 -37.3575138 203.17454365 -38.74134827 203.17805481 C-41.64585151 203.18405224 -44.55032498 203.18589409 -47.45483398 203.18530273 C-51.18202146 203.18520109 -54.90901853 203.19885272 -58.63616085 203.21607494 C-61.49541608 203.2271778 -64.35462503 203.22922247 -67.21389961 203.22869301 C-68.58825906 203.22987574 -69.96261961 203.23431388 -71.33695793 203.24202538 C-73.25708452 203.25178998 -75.17726662 203.24769215 -77.09741211 203.24291992 C-78.73836098 203.24505745 -78.73836098 203.24505745 -80.41246033 203.24723816 C-83 203 -83 203 -85 201 C-85.375 198.0625 -85.375 198.0625 -85 195 C-81.13710104 191.23973845 -76.16796239 190.5496418 -71.09375 189.2578125 C-64.81586681 186.7054408 -63.01743671 181.14718305 -60.39513779 175.3087635 C-57.77457015 169.09372249 -55.58549881 162.72716901 -53.37158203 156.35913086 C-52.84474388 154.85450025 -52.31777446 153.34991559 -51.79068184 151.84537411 C-46.63082682 137.07746338 -41.67568188 122.24233774 -36.76232672 107.39097333 C-35.54236844 103.70670513 -34.31790479 100.02393486 -33.09378052 96.34104919 C-29.49035766 85.49733638 -25.89305624 74.65159496 -22.29815674 63.80505371 C-19.47103972 55.27521235 -16.64197638 46.74602837 -13.80661595 38.21892303 C-12.35821998 33.86226132 -10.91398343 29.50425054 -9.47294116 25.14515126 C-8.58305255 22.45633518 -7.68943604 19.76876934 -6.79475975 17.08154297 C-6.18388927 15.24298953 -5.5775308 13.40293887 -4.97129822 11.56285095 C-4.60725388 10.4719516 -4.24320953 9.38105225 -3.86813354 8.25709534 C-3.39650945 6.83417852 -3.39650945 6.83417852 -2.91535759 5.38251591 C-2 3 -2 3 0 0 Z" fill="#E8E1CF" transform="translate(415,379)"/>
<path d="M0 0 C2.22937216 0.02151856 4.45553632 0.00001704 6.68481445 -0.02539062 C22.22098266 -0.05605925 37.77202609 3.34455956 50.28833008 13.14648438 C53.54484099 16.40299529 54.57324234 18.21444873 54.89379883 22.86523438 C54.89158722 24.25072331 54.87625766 25.63622703 54.85083008 27.02148438 C54.84220947 27.77816406 54.83358887 28.53484375 54.82470703 29.31445312 C54.78470756 32.0505241 54.72349427 34.78578333 54.66333008 37.52148438 C54.64399414 38.69324219 54.6246582 39.865 54.60473633 41.07226562 C54.53790898 44.88928677 54.4475057 48.70511078 54.35083008 52.52148438 C54.32851318 53.76865234 54.30619629 55.01582031 54.28320312 56.30078125 C54.24751221 57.46673828 54.21182129 58.63269531 54.17504883 59.83398438 C54.14886475 60.88199219 54.12268066 61.93 54.09570312 63.00976562 C53.95302002 63.83863281 53.81033691 64.6675 53.66333008 65.52148438 C50.59078883 67.56984521 49.79164723 67.8160493 46.28833008 67.83398438 C45.16297852 67.85912109 45.16297852 67.85912109 44.01489258 67.88476562 C40.74505422 67.37962448 39.1638119 66.74272457 36.66333008 64.52148438 C35.69281051 61.53279571 35.41779784 58.51328452 35.10083008 55.39648438 C33.8241493 45.50268885 33.8241493 45.50268885 29.66333008 36.52148438 C29.08518555 35.59529297 29.08518555 35.59529297 28.49536133 34.65039062 C23.41616883 27.72421903 14.9144142 24.05670873 6.72583008 22.14648438 C-9.96971453 19.59429921 -25.17844597 23.30146775 -39.13354492 32.73632812 C-53.70113345 43.88729151 -59.92479762 65.18139196 -62.33666992 82.52148438 C-65.90481277 110.20535128 -62.56348986 141.10412389 -45.52416992 164.02148438 C-36.29220945 174.72911884 -22.40157258 182.46786431 -8.17285156 183.71044922 C-5.93166648 183.78842508 -3.70399408 183.79957645 -1.46166992 183.77148438 C-0.66865479 183.7639917 0.12436035 183.75649902 0.94140625 183.7487793 C22.73118257 183.34902835 39.57687336 172.60794109 54.66333008 157.52148438 C58.16333008 157.70898438 58.16333008 157.70898438 61.66333008 158.52148438 C63.77641127 161.69110617 63.99744847 162.85200581 63.31567383 166.51367188 C58.3315186 181.85412569 41.4178984 194.1059711 27.91333008 201.33398438 C5.97859929 211.8149921 -18.59776681 211.8581932 -41.39916992 204.33398438 C-55.0202714 199.14937593 -65.1934193 191.83882231 -75.33666992 181.52148438 C-76.09850586 180.75835938 -76.8603418 179.99523437 -77.64526367 179.20898438 C-97.27239188 158.39581139 -102.05482868 130.57654129 -101.42114258 102.99316406 C-100.40500839 73.26096018 -87.64489457 45.22520254 -66.07104492 24.81835938 C-47.80714486 8.27566456 -24.50910546 -0.28013485 0 0 Z" fill="#E8E0CE" transform="translate(622.336669921875,376.478515625)"/>
<path d="M0 0 C1.23298828 -0.01160156 2.46597656 -0.02320313 3.73632812 -0.03515625 C15.6910175 0.002735 29.08184786 1.76419113 38.41015625 10.0078125 C44.7170588 16.91906198 46.02071615 23.53429296 45.9609375 32.62109375 C45.96524277 34.07600975 45.96524277 34.07600975 45.96963501 35.56031799 C45.97166862 37.60345039 45.96618816 39.64660256 45.95361328 41.68969727 C45.93756739 44.79943869 45.95347726 47.90787708 45.97265625 51.01757812 C45.97067335 53.01041951 45.96682872 55.00326009 45.9609375 56.99609375 C45.96701019 57.91716415 45.97308289 58.83823456 45.9793396 59.78721619 C45.88997112 68.08225728 43.94928453 74.69233067 38.234375 80.90234375 C31.0975061 87.18879136 21.27851446 86.50677269 12.390625 86.515625 C10.17707305 86.5339537 7.9635311 86.55352406 5.75 86.57421875 C2.28303081 86.60314284 -1.18329302 86.62499941 -4.65039062 86.62548828 C-8.01229215 86.6288406 -11.3727297 86.66349226 -14.734375 86.703125 C-15.75762878 86.6960553 -16.78088257 86.6889856 -17.83514404 86.68170166 C-26.93318147 86.83395522 -33.90249919 89.59044159 -40.375 96.0625 C-46.52610815 102.87859282 -46.91077043 112.78391695 -47.125 121.5 C-47.15916016 122.45648437 -47.19332031 123.41296875 -47.22851562 124.3984375 C-47.30990474 126.72384073 -47.37939612 129.04891876 -47.4375 131.375 C-58.48805753 131.8365082 -67.5771445 132.0895601 -77.03515625 125.58984375 C-79.75195525 123.0850876 -80.77872475 121.10909656 -82.125 117.6875 C-82.52074219 116.71425781 -82.91648437 115.74101563 -83.32421875 114.73828125 C-88.37732156 99.47259171 -89.62317443 79.12454226 -82.4375 64.375 C-78.34043969 56.64135589 -72.90688969 50.2105459 -64.4375 47.375 C-61.29264832 47.13449097 -61.29264832 47.13449097 -57.71948242 47.14794922 C-57.06526306 47.14765717 -56.4110437 47.14736511 -55.73699951 47.14706421 C-53.58885121 47.14845018 -51.44105596 47.16397629 -49.29296875 47.1796875 C-47.7979603 47.18342025 -46.3029494 47.18626598 -44.80793762 47.18826294 C-40.88372986 47.19587882 -36.95967145 47.21550959 -33.03552246 47.2376709 C-29.0269574 47.25817351 -25.01836807 47.26727408 -21.00976562 47.27734375 C-13.15227541 47.29875755 -5.29490631 47.33286862 2.5625 47.375 C2.5625 45.065 2.5625 42.755 2.5625 40.375 C-11.2975 40.375 -25.1575 40.375 -39.4375 40.375 C-39.5921875 34.93 -39.5921875 34.93 -39.75 29.375 C-39.79552002 28.24707031 -39.84104004 27.11914062 -39.88793945 25.95703125 C-39.98168608 19.09598796 -38.97439012 14.61947849 -34.4375 9.375 C-25.0663027 0.37511429 -12.27332759 -0.11512241 0 0 Z" fill="#E7E0CD" transform="translate(724.4375,593.625)"/>
<path d="M0 0 C19.36374385 -1.0108683 19.36374385 -1.0108683 27 5 C33.68319679 11.25095023 36.58535881 22.59630665 37.16113281 31.48852539 C37.68390209 63.97012572 37.68390209 63.97012572 27.0390625 75.0390625 C21.55684662 79.99139877 17.93024782 82.23386939 10.39550781 82.31884766 C9.74143448 82.32889328 9.08736115 82.3389389 8.41346741 82.34928894 C6.26002855 82.38008234 4.1067138 82.39714496 1.953125 82.4140625 C0.45667455 82.43277729 -1.03976538 82.45235094 -2.53619385 82.4727478 C-6.46850378 82.52404238 -10.40084791 82.56368228 -14.33331299 82.60089111 C-18.34859662 82.64094761 -22.36373831 82.69203243 -26.37890625 82.7421875 C-34.25250714 82.83891508 -42.12617837 82.92332987 -50 83 C-50 84.98 -50 86.96 -50 89 C-36.14 89 -22.28 89 -8 89 C-7.87625 92.815625 -7.7525 96.63125 -7.625 100.5625 C-7.54306396 102.34636108 -7.54306396 102.34636108 -7.45947266 104.16625977 C-7.37915404 109.29585547 -7.37897696 113.03286445 -10.73046875 117.10546875 C-13.16465856 119.45605505 -15.60869151 121.30729857 -18.6875 122.75 C-19.43386719 123.11609375 -20.18023438 123.4821875 -20.94921875 123.859375 C-30.64016729 127.48262337 -39.40619333 128.52024524 -49.75 128.4375 C-50.41197388 128.43412628 -51.07394775 128.43075256 -51.75598145 128.42727661 C-65.59846679 128.32493347 -79.6635426 127.46049489 -90 117 C-93.67667546 111.42709969 -93.43614325 106.20049361 -93.3984375 99.7578125 C-93.40130768 98.67547333 -93.40417786 97.59313416 -93.40713501 96.47799683 C-93.40917212 94.19349646 -93.40366707 91.9089785 -93.39111328 89.62451172 C-93.37508658 86.14380468 -93.39095866 82.66426433 -93.41015625 79.18359375 C-93.40817315 76.95833079 -93.40432808 74.73306855 -93.3984375 72.5078125 C-93.40451019 71.47423615 -93.41058289 70.44065979 -93.4168396 69.37576294 C-93.34527862 61.9516353 -92.59618371 55.99559659 -87.5625 50.1875 C-82.76973624 46.0961163 -79.68507953 43.89159912 -73.24414062 43.84228516 C-72.27883423 43.83202301 -71.31352783 43.82176086 -70.31896973 43.81118774 C-69.27527222 43.80388641 -68.23157471 43.79658508 -67.15625 43.7890625 C-64.93749289 43.76097304 -62.71874299 43.73230846 -60.5 43.703125 C-57.00911828 43.66203278 -53.51836831 43.62513947 -50.02734375 43.59863281 C-46.65336285 43.57080419 -43.27999133 43.5249115 -39.90625 43.4765625 C-38.36499451 43.4716832 -38.36499451 43.4716832 -36.79260254 43.46670532 C-26.99470167 43.30283584 -16.58820571 41.7081731 -9 35 C-2.34105324 27.11011207 -0.74286947 19.14059074 -0.375 9.0625 C-0.33632813 8.18787109 -0.29765625 7.31324219 -0.2578125 6.41210938 C-0.1643893 4.27505369 -0.08114602 2.13755706 0 0 Z" fill="#E7E0CE" transform="translate(777,643)"/>
<path d="M0 0 C4.76035787 3.7861451 9.5652742 8.1411351 11.51953125 14.00390625 C8.20349589 16.69276389 4.8674641 19.35488493 1.51953125 22.00390625 C0.83246094 22.55820312 0.14539063 23.1125 -0.5625 23.68359375 C-4.93716107 27.05751536 -4.93716107 27.05751536 -7.5390625 26.80078125 C-9.48046875 26.00390625 -9.48046875 26.00390625 -11.66796875 23.19140625 C-15.51197779 18.35727367 -20.35064697 16.45524174 -26.37890625 15.5859375 C-34.61360046 15.19431323 -41.0722114 17.16415566 -47.328125 22.61328125 C-51.87581616 27.48500937 -54.05203449 32.76004688 -54.91796875 39.31640625 C-53.98572284 47.17390746 -51.54107774 54.21289803 -45.53125 59.56640625 C-40.26022903 63.26114095 -34.0654845 65.80031131 -27.546875 65.37890625 C-18.84121519 63.79905116 -13.66373927 60.07512299 -8.48046875 53.00390625 C-5.43044105 53.62399943 -3.20920473 54.62027607 -0.58984375 56.2890625 C0.11914062 56.73701172 0.828125 57.18496094 1.55859375 57.64648438 C2.28820312 58.11505859 3.0178125 58.58363281 3.76953125 59.06640625 C4.51460937 59.53884766 5.2596875 60.01128906 6.02734375 60.49804688 C7.86116068 61.66181531 9.69076369 62.83221913 11.51953125 64.00390625 C8.21555199 73.18515632 0.8194684 79.25074457 -7.48046875 84.00390625 C-20.5100541 89.84597577 -33.80872311 90.91956629 -47.40234375 86.2734375 C-60.43887197 80.8966968 -70.20083224 72.1216543 -75.79296875 59.06640625 C-81.09027989 44.5385873 -80.49417015 31.69025436 -74.41796875 17.52734375 C-68.42313988 5.74583979 -58.89706311 -2.40881971 -46.609375 -7.08984375 C-30.44262279 -11.82799636 -13.94622405 -9.4540289 0 0 Z" fill="#1B1B1B" transform="translate(764.48046875,243.99609375)"/>
<path d="M0 0 C6.3715755 3.47540482 10.653757 6.9975173 13.4375 13.875 C11.84379329 15.24146148 10.23717018 16.59287166 8.625 17.9375 C7.73167969 18.69160156 6.83835937 19.44570313 5.91796875 20.22265625 C5.09941406 20.76792969 4.28085937 21.31320312 3.4375 21.875 C-0.27421927 20.63776024 -1.8178349 18.6196651 -4.5625 15.875 C-8.09697902 13.40086469 -11.32923914 13.42939359 -15.5625 13.875 C-18.59188694 15.33133124 -18.59188694 15.33133124 -20.5625 17.875 C-21.39583333 20.875 -21.39583333 20.875 -20.5625 23.875 C-16.76449463 27.47083018 -12.47990676 29.53915198 -7.8125 31.75 C2.08517661 36.59103516 11.7638318 41.36067867 16.8125 51.6875 C18.34496505 59.50307175 17.98282789 65.55774967 14.05078125 72.61328125 C9.70648831 78.70370647 3.50492742 81.87236427 -3.5625 83.875 C-13.16816635 85.37667377 -22.5872746 84.69398628 -31.0625 79.7265625 C-36.00412848 76.0666689 -40.41213231 72.11193328 -41.5625 65.875 C-39.77368264 64.86991199 -37.98135304 63.87107264 -36.1875 62.875 C-35.18976563 62.318125 -34.19203125 61.76125 -33.1640625 61.1875 C-30.5625 59.875 -30.5625 59.875 -28.5625 59.875 C-28.170625 60.6175 -27.77875 61.36 -27.375 62.125 C-25.04610711 65.65849267 -22.5008969 67.50096974 -18.5625 68.875 C-13.47924755 69.67126897 -9.698762 69.39329495 -5 67.25 C-2.38254036 65.04506161 -2.38254036 65.04506161 -1.5 61.9375 C-1.57782773 58.12394118 -2.18427909 56.86266865 -4.5625 53.875 C-7.27432276 52.29853407 -10.14557112 51.20272967 -13.0625 50.0625 C-23.46801278 45.70047248 -33.83756322 40.79281509 -38.5625 29.875 C-40.66121235 22.89746285 -39.97863747 16.26113757 -36.5625 9.875 C-28.4016618 -1.72198061 -13.01231344 -4.16899363 0 0 Z" fill="#1B1B1B" transform="translate(341.5625,647.125)"/>
<path d="M0 0 C2.46257866 2.46257866 2.92016686 4.3732943 3.96777344 7.69287109 C4.34867126 8.88947357 4.72956909 10.08607605 5.12200928 11.31893921 C5.53463216 12.63705284 5.94708262 13.95522045 6.359375 15.2734375 C6.79004923 16.63529974 7.22123058 17.9970017 7.65289307 19.35855103 C8.5610773 22.22745147 9.46523643 25.0975773 10.36621094 27.96875 C11.50160844 31.58695409 12.64333506 35.20311397 13.78780746 38.81845665 C14.89715367 42.32360326 16.0034793 45.82970097 17.109375 49.3359375 C17.31181572 49.97720959 17.51425644 50.61848167 17.72283173 51.27918625 C21.25742097 62.4886991 24.62206806 73.74022686 28 85 C9.85 85 -8.3 85 -27 85 C-23.62505808 73.75019359 -23.62505808 73.75019359 -22.31762695 69.67163086 C-22.02334305 68.75204086 -21.72905914 67.83245087 -21.42585754 66.88499451 C-21.11645737 65.92134476 -20.80705719 64.95769501 -20.48828125 63.96484375 C-20.15636276 62.92848282 -19.82444427 61.89212189 -19.48246765 60.82435608 C-18.4266722 57.52846094 -17.36962004 54.23297051 -16.3125 50.9375 C-15.62296142 48.78583468 -14.93350771 46.63414215 -14.24414062 44.48242188 C-12.86710769 40.18460202 -11.48961647 35.88692945 -10.11181641 31.58935547 C-6.73690825 21.06094805 -3.36862497 10.5304191 0 0 Z" fill="#1C1C1B" transform="translate(419,416)"/>
<path d="M0 0 C5.61 0 11.22 0 17 0 C17.09060332 8.59755776 17.16388916 17.19474031 17.20724869 25.79264832 C17.22806593 29.78561229 17.25627489 33.77823086 17.30175781 37.77099609 C17.3454269 41.62896081 17.36918115 45.48659467 17.37950897 49.3447876 C17.38686282 50.81192224 17.40122288 52.27904009 17.42292023 53.74603271 C17.5512915 62.79046368 17.40673779 69.77149292 11.32421875 76.98828125 C3.85012789 83.03533806 -1.82645103 84.6525108 -11.4921875 84.40625 C-19.92181023 83.4299908 -25.36931415 79.32587378 -30.72265625 72.96484375 C-32.03038597 70.95325951 -32.57666015 69.34666164 -33 67 C-31.06891037 65.96709159 -29.129882 64.94901328 -27.1875 63.9375 C-26.10855469 63.36902344 -25.02960938 62.80054688 -23.91796875 62.21484375 C-21 61 -21 61 -18 62 C-17.2575 62.845625 -16.515 63.69125 -15.75 64.5625 C-13.15783051 67.31257379 -13.15783051 67.31257379 -9.4375 67.5 C-5.9097378 66.98687095 -4.44411643 66.53812091 -2 64 C-0.93290958 60.79872874 -0.84326797 58.42642377 -0.79467773 55.05981445 C-0.77473251 53.83877518 -0.75478729 52.6177359 -0.73423767 51.35969543 C-0.71752518 50.04087875 -0.70081268 48.72206207 -0.68359375 47.36328125 C-0.6630174 45.99992756 -0.64202075 44.63658015 -0.62062073 43.27323914 C-0.5654703 39.68778578 -0.51603013 36.10227552 -0.46777344 32.51672363 C-0.41750701 28.8568008 -0.36184781 25.19696043 -0.30664062 21.53710938 C-0.19914503 14.35814085 -0.09817955 7.17910308 0 0 Z" fill="#1D1C1C" transform="translate(273,647)"/>
<path d="M0 0 C3.84478875 1.45836815 5.1822915 3.36458299 7 7 C9.16548844 14.22846143 8.82701732 21.07206127 5.6875 27.9375 C0.02650496 38.19639243 -8.2873044 45.6019909 -17.35546875 52.7890625 C-25.43051193 59.54013258 -31.64480611 66.81747236 -33.625 77.3125 C-32.40953141 84.48376467 -28.65277723 91.05742435 -24.1875 96.75 C-21.48533353 100.76464733 -21.25082684 103.23429012 -21 108 C-21.52851563 107.31421875 -22.05703125 106.6284375 -22.6015625 105.921875 C-24.85880958 103.17200397 -27.21748232 100.61052214 -29.6706543 98.03881836 C-46 80.90013966 -46 80.90013966 -46 71.75 C-42.73625703 59.51096388 -31.86147299 51.55352406 -22.29296875 44.14379883 C-6.56620371 32.22242714 -6.56620371 32.22242714 2 15 C2.47661702 9.5605137 2.82799226 4.82223381 0 0 Z" fill="#EAE3D4" transform="translate(304,196)"/>
<path d="M0 0 C0 0.33 0 0.66 0 1 C-0.84304687 1.17015625 -1.68609375 1.3403125 -2.5546875 1.515625 C-3.65039062 1.75796875 -4.74609375 2.0003125 -5.875 2.25 C-6.96554688 2.48203125 -8.05609375 2.7140625 -9.1796875 2.953125 C-12.12326177 3.7021668 -12.12326177 3.7021668 -13.17626953 6.06542969 C-13.58401611 7.02304199 -13.58401611 7.02304199 -14 8 C-7.79960202 11.11043989 -2.11653467 12.81357741 4.75 13.6875 C5.63341064 13.80778564 6.51682129 13.92807129 7.42700195 14.05200195 C9.9494396 14.38658985 12.4734267 14.69844639 15 15 C16.09183594 15.1340625 17.18367188 15.268125 18.30859375 15.40625 C42.88532126 17.80723288 85.6022648 20.91918215 107 6 C108.37355448 2.94019842 108.37355448 2.94019842 109 0 C111 2 111 2 111 4.8125 C109.47639471 9.66899186 106.39201513 11.56584934 102.234375 14.05859375 C97.11342281 16.64931169 91.68766529 17.92257621 86.125 19.1875 C85.02913574 19.43802124 85.02913574 19.43802124 83.91113281 19.69360352 C70.77544829 22.50570522 57.42960404 22.23968505 44.0625 22.25 C42.5307312 22.25200912 42.5307312 22.25200912 40.96801758 22.25405884 C24.4605799 22.24936812 8.33160166 21.58819989 -8 19 C-8.79245117 18.8772168 -9.58490234 18.75443359 -10.40136719 18.62792969 C-17.07328781 17.54527113 -22.78187588 16.45075293 -28 12 C-27.81139305 8.60507481 -27.27722005 7.26929948 -24.8125 4.875 C-17.65225008 0.59970514 -8.14546959 -0.20805797 0 0 Z" fill="#EAE4D6" transform="translate(242,365)"/>
<path d="M0 0 C-0.76183594 0.35191406 -1.52367187 0.70382813 -2.30859375 1.06640625 C-8.55391835 4.05262263 -13.96754426 7.20330668 -19.2578125 11.6796875 C-21 13 -21 13 -23 13 C-23.2475 13.53625 -23.495 14.0725 -23.75 14.625 C-25 17 -25 17 -27.125 19.6875 C-29.62489051 24.10397324 -30.239134 27.043464 -29 32 C-27.72280846 34.39889889 -26.42224212 36.69224578 -25 39 C-22.14654591 43.63995373 -19.87473636 47.38763614 -20.4765625 52.98046875 C-22.26399523 59.87675773 -25.79476329 64.26796663 -31 69 C-31.66 68.67 -32.32 68.34 -33 68 C-32.505 67.01 -32.505 67.01 -32 66 C-30.44109307 61.32327921 -29.9990352 57.2470149 -32.01904297 52.71240234 C-33.41511122 50.31100361 -34.8936641 47.99655816 -36.4375 45.6875 C-37.45928837 44.10953219 -38.47891739 42.53016345 -39.49609375 40.94921875 C-39.95169678 40.26174561 -40.4072998 39.57427246 -40.87670898 38.8659668 C-43.31698733 34.81227251 -43.71806257 30.60550477 -43 26 C-41.72806411 22.99982834 -40.0113471 20.55286363 -38 18 C-37.53851563 17.41347656 -37.07703125 16.82695312 -36.6015625 16.22265625 C-29.49891156 8.27273477 -10.93250244 -3.94930112 0 0 Z" fill="#E9E2D3" transform="translate(331,241)"/>
<path d="M0 0 C2.66633777 0.11127663 5.30569405 0.16411826 7.97265625 0.16796875 C9.16827431 0.17296135 9.16827431 0.17296135 10.38804626 0.17805481 C12.08022484 0.18312471 13.77241344 0.18546312 15.46459961 0.18530273 C18.02800558 0.18747083 20.59096815 0.20557414 23.15429688 0.22460938 C24.80208187 0.22754714 26.4498689 0.22952937 28.09765625 0.23046875 C28.85426041 0.23765427 29.61086456 0.24483978 30.39039612 0.25224304 C35.15819762 0.23224835 39.36384871 -0.41140068 43.95932007 -1.70106506 C47.67859893 -2.24589445 50.44200534 -0.47216986 53.5625 1.375 C54.18962891 1.71789062 54.81675781 2.06078125 55.46289062 2.4140625 C56.98842435 3.25252378 58.49628444 4.12301084 60 5 C51.88576501 13.11423499 33.86781485 13.19663688 22.9375 13.375 C15.88045484 13.375 9.11308251 12.5861458 2.1875 11.25 C1.35790771 11.09321777 0.52831543 10.93643555 -0.32641602 10.77490234 C-5.33946396 9.70247716 -9.09728806 8.39366256 -13 5 C-13 3.68 -13 2.36 -13 1 C-11.73392393 0.46770674 -10.46189588 -0.05044544 -9.1875 -0.5625 C-8.47980469 -0.85253906 -7.77210938 -1.14257812 -7.04296875 -1.44140625 C-4.21686118 -2.21412782 -2.54741035 -1.27370517 0 0 Z" fill="#E7E0D0" transform="translate(262,356)"/>
<path d="M0 0 C-3.96 1.65 -7.92 3.3 -12 5 C-12 5.66 -12 6.32 -12 7 C-4.54156716 9.36372051 2.73042088 9.34957689 10.5 9.3125 C11.18909454 9.31233887 11.87818909 9.31217773 12.58816528 9.31201172 C24.95400644 9.29213979 37.16466856 8.40335341 49.453125 7.06762695 C56.02002978 6.35539507 62.3935518 5.82747034 69 6 C69 6.66 69 7.32 69 8 C47.47865734 13.9798371 25.72652614 15.27709886 3.5 15.375 C2.6126416 15.38285522 1.7252832 15.39071045 0.81103516 15.39880371 C-10.44218086 15.47647321 -20.79273015 15.3503977 -31 10 C-30.78515625 8.12890625 -30.78515625 8.12890625 -30 6 C-24.239803 2.55778972 -17.02916006 1.45600983 -10.5 0.1875 C-9.45863892 -0.01661499 -9.45863892 -0.01661499 -8.39624023 -0.22485352 C-5.12637627 -0.81175218 -3.20373219 -1.06791073 0 0 Z" fill="#E8E2D1" transform="translate(258,309)"/>
<path d="M0 0 C8.19256018 1.17286652 8.19256018 1.17286652 11.5625 4.625 C12.036875 5.40875 12.51125 6.1925 13 7 C-0.38282549 11.99020612 -13.57626655 12.34830975 -27.69311523 12.31567383 C-30.56076705 12.31250192 -33.42739588 12.33609488 -36.29492188 12.36132812 C-56.79351749 12.43391349 -56.79351749 12.43391349 -64 9 C-64.33 8.01 -64.66 7.02 -65 6 C-63.875 3.8125 -63.875 3.8125 -62 2 C-58.73051072 1.38144797 -57.27844257 1.83939714 -54.39135742 3.50463867 C-50.10451149 5.39485041 -46.67565316 5.41590036 -42.05078125 5.36328125 C-41.19751755 5.36377975 -40.34425385 5.36427826 -39.46513367 5.36479187 C-37.6639879 5.36245887 -35.86283841 5.35277617 -34.06176758 5.33618164 C-31.33839919 5.31272309 -28.6160211 5.31561046 -25.89257812 5.32226562 C-17.08926777 5.30682812 -8.59410396 5.1661953 0 3 C0 2.01 0 1.02 0 0 Z" fill="#EEE9DC" transform="translate(309,333)"/>
<path d="M0 0 C0.99 0.495 0.99 0.495 2 1 C-0.990627 5.26604145 -3.84509342 7.32899878 -8.5 9.625 C-9.6240625 10.19476563 -10.748125 10.76453125 -11.90625 11.3515625 C-40.95267226 24.05517747 -85.89078721 23.30733007 -116 14 C-116.33 13.34 -116.66 12.68 -117 12 C-116.13648926 12.06058594 -115.27297852 12.12117188 -114.38330078 12.18359375 C-55.04698232 17.82716785 -55.04698232 17.82716785 0 0 Z" fill="#E7E3D9" transform="translate(361,380)"/>
<path d="M0 0 C2.64 0.33 5.28 0.66 8 1 C8 1.66 8 2.32 8 3 C8.66 3.33 9.32 3.66 10 4 C9.67 4.66 9.34 5.32 9 6 C2.44615123 8.17421942 -3.78761728 8.30675855 -10.6484375 8.30078125 C-11.74217682 8.30506638 -12.83591614 8.3093515 -13.96279907 8.31376648 C-16.26051137 8.3194831 -18.55824175 8.32002984 -20.85595703 8.31567383 C-24.38474779 8.31249121 -27.91271759 8.33608469 -31.44140625 8.36132812 C-33.67708227 8.36359899 -35.91276056 8.3643056 -38.1484375 8.36328125 C-39.20670746 8.372491 -40.26497742 8.38170074 -41.35531616 8.39118958 C-42.81791367 8.38184639 -42.81791367 8.38184639 -44.31005859 8.37231445 C-45.16973236 8.37294388 -46.02940613 8.3735733 -46.91513062 8.3742218 C-47.94714096 8.18898201 -47.94714096 8.18898201 -49 8 C-49.66 7.01 -50.32 6.02 -51 5 C-49.68 4.67 -48.36 4.34 -47 4 C-47 3.34 -47 2.68 -47 2 C-31.49 1.67 -15.98 1.34 0 1 C0 0.67 0 0.34 0 0 Z" fill="#212220" transform="translate(748,679)"/>
<path d="M0 0 C2.0622048 -0.054348 4.12482816 -0.09294961 6.1875 -0.125 C7.33605469 -0.14820313 8.48460937 -0.17140625 9.66796875 -0.1953125 C13.66299406 0.03886249 16.54351277 0.6795987 19.546875 3.40234375 C23.47234493 8.41114142 24.4308752 11.64459082 24 18 C20.97624915 27.07125255 12.72615392 31.4046159 4.6875 35.5 C3.98149658 35.86270996 3.27549316 36.22541992 2.5480957 36.59912109 C-2.62400268 39.12533244 -2.62400268 39.12533244 -6 38 C-2.38252585 34.83471012 1.22131151 31.80531226 5.125 29 C9.23620761 25.96648759 12.68401244 22.63197512 15 18 C15.40104417 12.78642583 14.87196113 9.41051174 12 5 C9.11372717 3.2022999 6.61244681 2.67168648 3.25 2.375 C2.45078125 2.30023438 1.6515625 2.22546875 0.828125 2.1484375 C0.22484375 2.09945313 -0.3784375 2.05046875 -1 2 C-0.67 1.34 -0.34 0.68 0 0 Z" fill="#F2EEE4" transform="translate(338,305)"/>
<path d="M0 0 C1.71218971 0.00848969 1.71218971 0.00848969 3.45896912 0.01715088 C7.07595183 0.03939751 10.69191451 0.08957393 14.30859375 0.140625 C16.77277207 0.16070505 19.23696604 0.17895317 21.70117188 0.1953125 C27.71648913 0.23922388 33.73121853 0.30601856 39.74609375 0.390625 C39.74609375 0.720625 39.74609375 1.050625 39.74609375 1.390625 C23.57609375 1.390625 7.40609375 1.390625 -9.25390625 1.390625 C-9.25390625 2.050625 -9.25390625 2.710625 -9.25390625 3.390625 C-10.24390625 3.720625 -11.23390625 4.050625 -12.25390625 4.390625 C-11.59390625 5.050625 -10.93390625 5.710625 -10.25390625 6.390625 C-11.25390625 8.390625 -11.25390625 8.390625 -14.00390625 9.703125 C-19.59727452 12.60737391 -22.52406175 15.97771876 -24.64736938 21.93017578 C-25.86752599 26.87980629 -25.6157091 31.916932 -25.546875 36.984375 C-25.54263016 38.17164185 -25.53838531 39.35890869 -25.53401184 40.58215332 C-25.51729964 44.3518804 -25.47966006 48.12106112 -25.44140625 51.890625 C-25.42634983 54.45572141 -25.4126631 57.02082626 -25.40039062 59.5859375 C-25.36742048 65.85435119 -25.31729521 72.12244905 -25.25390625 78.390625 C-27.45739161 75.08539696 -27.4995401 74.11401501 -27.48095703 70.27661133 C-27.48073044 68.71533257 -27.48073044 68.71533257 -27.48049927 67.12251282 C-27.4701767 66.00056015 -27.45985413 64.87860748 -27.44921875 63.72265625 C-27.44497391 61.99773201 -27.44497391 61.99773201 -27.44064331 60.23796082 C-27.42943458 56.55957704 -27.40432849 52.88143538 -27.37890625 49.203125 C-27.36887736 46.71159205 -27.35975135 44.2200553 -27.3515625 41.72851562 C-27.32949298 35.61580259 -27.29600849 29.50323109 -27.25390625 23.390625 C-28.24390625 23.720625 -29.23390625 24.050625 -30.25390625 24.390625 C-30.58390625 26.370625 -30.91390625 28.350625 -31.25390625 30.390625 C-31.58390625 30.390625 -31.91390625 30.390625 -32.25390625 30.390625 C-32.81834807 21.86128193 -32.09055539 16.24110371 -26.74609375 9.484375 C-19.19956297 1.20074121 -10.84474777 -0.20521947 0 0 Z" fill="#111111" transform="translate(710.25390625,679.609375)"/>
<path d="M0 0 C0 0.66 0 1.32 0 2 C-24.29980126 8.75184887 -48.95936394 9.51264294 -74 9 C-74 8.67 -74 8.34 -74 8 C-69.05 7.67 -64.1 7.34 -59 7 C-64.94 6.01 -64.94 6.01 -71 5 C-71 4.67 -71 4.34 -71 4 C-70.25878906 3.98541748 -69.51757812 3.97083496 -68.75390625 3.95581055 C-52.29907286 3.59957448 -36.02031319 2.73161405 -19.65039062 1.01635742 C-13.0555769 0.33507849 -6.6305143 -0.16630516 0 0 Z" fill="#EEEADF" transform="translate(327,315)"/>
<path d="M0 0 C5.61 0 11.22 0 17 0 C17.04518938 8.66662804 17.08188072 17.33317779 17.10362434 25.999897 C17.11406032 30.02422718 17.1282161 34.04847254 17.15087891 38.07275391 C17.17261396 41.95660994 17.18457003 45.84038441 17.18975449 49.72429657 C17.19344905 51.20586175 17.20066362 52.68742249 17.21146011 54.16895294 C17.225984 56.24456927 17.22797759 58.31984882 17.22705078 60.39550781 C17.231492 61.57687317 17.23593323 62.75823853 17.24050903 63.97540283 C17.00875604 66.88988565 16.5255077 68.54383012 15 71 C13.57723646 68.15447291 13.92467225 65.8027801 13.97827148 62.62255859 C13.98787903 61.96877731 13.99748657 61.31499603 14.00738525 60.6414032 C14.04040857 58.47697288 14.08072797 56.31274232 14.12109375 54.1484375 C14.14539163 52.6491466 14.16923535 51.14984828 14.19264221 49.65054321 C14.2555163 45.70161492 14.32457347 41.75281782 14.39489746 37.80401611 C14.46555093 33.77565493 14.53038575 29.74720062 14.59570312 25.71875 C14.72475833 17.81239491 14.86087992 9.9061844 15 2 C10.38 2 5.76 2 1 2 C1.02094727 3.82168701 1.04189453 5.64337402 1.06347656 7.52026367 C1.12804419 13.547188 1.17396906 19.57401425 1.20724869 25.60117626 C1.22810093 29.25457815 1.25637408 32.90760497 1.30175781 36.56079102 C1.34530186 40.08806849 1.36915489 43.6149858 1.37950897 47.14251137 C1.39046874 49.13949599 1.42168148 51.13633624 1.45318604 53.13310242 C1.45348816 54.35399063 1.45379028 55.57487885 1.45410156 56.83276367 C1.46298401 57.90531906 1.47186646 58.97787445 1.48101807 60.08293152 C0.88177863 63.7169374 -0.47107958 65.37406684 -3 68 C-6.48035404 69.74017702 -10.20334156 69.59542873 -14 69 C-16.34430762 67.57905206 -17.99366548 65.91301663 -20 64 C-22.21735439 63.14720662 -22.21735439 63.14720662 -24 63 C-22.35 62.34 -20.7 61.68 -19 61 C-18.38125 61.804375 -17.7625 62.60875 -17.125 63.4375 C-15.25835959 66.03874519 -15.25835959 66.03874519 -13 67 C-8.11038194 67.37403391 -8.11038194 67.37403391 -3.625 65.6875 C-0.59536643 62.54134206 -0.8545753 59.20985977 -0.79467773 55.05981445 C-0.77473251 53.83877518 -0.75478729 52.6177359 -0.73423767 51.35969543 C-0.71752518 50.04087875 -0.70081268 48.72206207 -0.68359375 47.36328125 C-0.6630174 45.99992756 -0.64202075 44.63658015 -0.62062073 43.27323914 C-0.5654703 39.68778578 -0.51603013 36.10227552 -0.46777344 32.51672363 C-0.41750701 28.8568008 -0.36184781 25.19696043 -0.30664062 21.53710938 C-0.19914503 14.35814085 -0.09817955 7.17910308 0 0 Z" fill="#100F0C" transform="translate(273,647)"/>
<path d="M0 0 C0.88324951 -0.01869141 1.76649902 -0.03738281 2.67651367 -0.05664062 C4.83203125 0.15625 4.83203125 0.15625 6.83203125 2.15625 C5.71828125 2.135625 4.60453125 2.115 3.45703125 2.09375 C-0.00012796 1.89244282 -0.00012796 1.89244282 -2.16796875 3.15625 C-2.16796875 3.81625 -2.16796875 4.47625 -2.16796875 5.15625 C-0.18796875 5.15625 1.79203125 5.15625 3.83203125 5.15625 C3.83203125 5.48625 3.83203125 5.81625 3.83203125 6.15625 C-2.152985 7.02543249 -7.9528606 7.30320687 -13.99609375 7.2890625 C-14.90752136 7.29001923 -15.81894897 7.29097595 -16.75799561 7.29196167 C-18.6706957 7.29263814 -20.58339815 7.29082127 -22.49609375 7.28662109 C-25.42322917 7.28124033 -28.35021289 7.2865969 -31.27734375 7.29296875 C-33.14192742 7.29230836 -35.006511 7.29102801 -36.87109375 7.2890625 C-37.7440509 7.29108673 -38.61700806 7.29311096 -39.51641846 7.29519653 C-40.33116638 7.29204437 -41.14591431 7.28889221 -41.98535156 7.28564453 C-42.69846497 7.28484894 -43.41157837 7.28405334 -44.14630127 7.28323364 C-46.25842358 7.15056841 -48.13528516 6.73137422 -50.16796875 6.15625 C-50.16796875 6.81625 -50.16796875 7.47625 -50.16796875 8.15625 C-51.60452729 8.23756463 -53.04241705 8.29558559 -54.48046875 8.34375 C-55.68123047 8.39595703 -55.68123047 8.39595703 -56.90625 8.44921875 C-59.64648459 8.09426608 -60.45967954 7.26258718 -62.16796875 5.15625 C-61.09675781 5.10726563 -60.02554688 5.05828125 -58.921875 5.0078125 C-57.52471236 4.93279706 -56.12757825 4.8572487 -54.73046875 4.78125 C-54.02341797 4.7503125 -53.31636719 4.719375 -52.58789062 4.6875 C-50.77557687 4.58344371 -48.96978887 4.37705108 -47.16796875 4.15625 C-46.83796875 3.49625 -46.50796875 2.83625 -46.16796875 2.15625 C-40.88796875 2.15625 -35.60796875 2.15625 -30.16796875 2.15625 C-30.16796875 1.82625 -30.16796875 1.49625 -30.16796875 1.15625 C-26.39730414 0.98561937 -22.62641653 0.82049375 -18.85546875 0.65625 C-17.27668945 0.58470703 -17.27668945 0.58470703 -15.66601562 0.51171875 C-10.4458068 0.28684822 -5.22426714 0.09552946 0 0 Z" fill="#1E1E1E" transform="translate(314.16796875,385.84375)"/>
<path d="M0 0 C0.33 0 0.66 0 1 0 C1 27.39 1 54.78 1 83 C0.67 82.01 0.34 81.02 0 80 C-0.66 80 -1.32 80 -2 80 C-2 54.26 -2 28.52 -2 2 C-1.34 2 -0.68 2 0 2 C0 1.34 0 0.68 0 0 Z" fill="#2D2C29" transform="translate(659,243)"/>
<path d="M0 0 C12.25529511 1.63117763 12.25529511 1.63117763 16 6 C17 8.3125 17 8.3125 17 11 C16.03909837 13.34970477 15.0420866 15.6851566 14 18 C6.26344915 18.09279127 -1.4730438 18.16381111 -9.21002483 18.20724869 C-12.80289593 18.2280997 -16.39538555 18.25637049 -19.98803711 18.30175781 C-23.45696052 18.34530641 -26.92551765 18.36915581 -30.39469337 18.37950897 C-32.35844133 18.3904672 -34.32204247 18.42167925 -36.28556824 18.45318604 C-37.4864357 18.45348816 -38.68730316 18.45379028 -39.92456055 18.45410156 C-41.50674629 18.46742523 -41.50674629 18.46742523 -43.12089539 18.48101807 C-46.73929046 17.87648519 -48.39991778 16.53921122 -51 14 C-52.13059495 10.98508014 -52.27501877 9.67837962 -51.0625 6.6875 C-50.711875 6.130625 -50.36125 5.57375 -50 5 C-49.34 5.33 -48.68 5.66 -48 6 C-48.33 6.33 -48.66 6.66 -49 7 C-49.16666667 10 -49.16666667 10 -49 13 C-47.9435147 14.28046633 -47.9435147 14.28046633 -45.52598572 14.12025452 C-44.42678299 14.11803391 -43.32758026 14.11581329 -42.19506836 14.11352539 C-40.33325172 14.11341209 -40.33325172 14.11341209 -38.43382263 14.11329651 C-37.0691626 14.10818911 -35.70450298 14.1029731 -34.33984375 14.09765625 C-32.95121817 14.095792 -31.56259193 14.09436813 -30.17396545 14.09336853 C-26.51278885 14.08954387 -22.8516517 14.07971403 -19.19049072 14.06866455 C-15.45707737 14.05844932 -11.72365766 14.05387067 -7.99023438 14.04882812 C-0.66013823 14.03809171 6.66992536 14.02101591 14 14 C14.47097616 9.16345544 14.47097616 9.16345544 12.328125 5.16796875 C9.82772679 3.91357435 7.44619255 3.05750057 4.75 2.3125 C3.85796875 2.06113281 2.9659375 1.80976562 2.046875 1.55078125 C1.37140625 1.36902344 0.6959375 1.18726563 0 1 C0 0.67 0 0.34 0 0 Z" fill="#252422" transform="translate(380,567)"/>
<path d="M0 0 C3.38256721 1.39197329 4.83688682 2.8025496 6.6875 5.9375 C7.10386719 6.62714844 7.52023437 7.31679688 7.94921875 8.02734375 C9.76592924 11.43789689 10.1230889 14.13370761 10.11352539 17.93041992 C10.11344986 18.93123093 10.11337433 19.93204193 10.11329651 20.96318054 C10.10813522 22.04138565 10.10297394 23.11959076 10.09765625 24.23046875 C10.0962413 25.33602615 10.09482635 26.44158356 10.09336853 27.5806427 C10.08776514 31.11628917 10.07521204 34.65187262 10.0625 38.1875 C10.05748544 40.58268138 10.05292246 42.97786375 10.04882812 45.37304688 C10.03779461 51.24871947 10.02105316 57.12435523 10 63 C10.66 63 11.32 63 12 63 C12.875 65.5 12.875 65.5 13 69 C9.97338635 75.13696761 5.02482168 79.00685831 -1 82 C-2.485 82.495 -2.485 82.495 -4 83 C-4.495 80.525 -4.495 80.525 -5 78 C-7.475 78.495 -7.475 78.495 -10 79 C-10 78.34 -10 77.68 -10 77 C-9.34773437 76.79246094 -8.69546875 76.58492187 -8.0234375 76.37109375 C-1.85998021 74.1984296 2.7382905 71.85124239 6 66 C8.02834699 60.21187089 8.33538295 54.92942497 8.37109375 48.82421875 C8.38012222 47.8590181 8.3891507 46.89381744 8.39845276 45.89936829 C8.41290586 43.8646655 8.42182965 41.82991676 8.42553711 39.79516602 C8.4374248 36.70703605 8.4866526 33.6209118 8.53710938 30.53320312 C8.54657638 28.54688465 8.55381009 26.56055402 8.55859375 24.57421875 C8.57812607 23.66347092 8.59765839 22.75272308 8.61778259 21.81437683 C8.55794804 13.174654 5.2465749 6.73680162 0 0 Z" fill="#0C0C0C" transform="translate(761,602)"/>
<path d="M0 0 C3.74093467 2.07829704 4.79149259 3.32541719 6.0625 7.4375 C5.98713481 11.73331579 5.03450339 13.05219671 2 16 C-0.88861709 17.44430855 -2.79647701 17.37688506 -6 17 C-8.87459336 15.00028288 -10.62907801 13.51060972 -11.484375 10.02734375 C-11.73645855 6.28110213 -11.30563428 4.35956975 -8.875 1.5 C-5.48749667 -0.26739304 -3.7664742 -0.6277457 0 0 Z" fill="#181717" transform="translate(753,742)"/>
<path d="M0 0 C2.99993115 2.54994148 3.85480459 4.12882756 4.5 8 C3.86089908 11.83460553 2.89357127 13.40320527 0 16 C-3.4375 17.0625 -3.4375 17.0625 -7 17 C-9.80189446 15.23358828 -11.51524911 13.96950178 -13 11 C-13.52981019 7.02642355 -13.31881474 5.45829619 -11 2.125 C-6.83726829 -0.82360163 -5.02455429 -0.7975483 0 0 Z" fill="#181717" transform="translate(709,607)"/>
<path d="M0 0 C0.66 0 1.32 0 2 0 C3.56700442 3.13400885 3.85164561 6.63155095 3 10 C0.32042933 12.65735719 -1.34237733 13.89818481 -5.10688782 14.48101807 C-6.26826767 14.47213562 -7.42964752 14.46325317 -8.6262207 14.45410156 C-9.27068649 14.45468567 -9.91515228 14.45526978 -10.57914734 14.45587158 C-12.69525272 14.45309954 -14.80992405 14.42205361 -16.92578125 14.390625 C-18.39836355 14.38315937 -19.87095583 14.37746796 -21.34355164 14.37347412 C-25.20878806 14.35824282 -29.07341785 14.31898363 -32.93841553 14.2746582 C-36.88659459 14.23365082 -40.83487222 14.2154515 -44.78320312 14.1953125 C-52.52241119 14.15248605 -60.26112041 14.08426624 -68 14 C-68 13.34 -68 12.68 -68 12 C-68.66 11.67 -69.32 11.34 -70 11 C-69.12525528 10.98969254 -68.25051056 10.97938507 -67.34925842 10.96876526 C-59.12317642 10.8709649 -50.89716928 10.76847587 -42.6712122 10.66066074 C-38.44172386 10.60539313 -34.21222867 10.55196715 -29.98266602 10.50268555 C-25.90425337 10.45509841 -21.82592738 10.40275792 -17.74761772 10.34705925 C-16.18824852 10.32661 -14.62885554 10.30790125 -13.06944466 10.29092598 C-10.8926441 10.26693856 -8.71600876 10.23687681 -6.53930664 10.20532227 C-5.29798477 10.18977798 -4.0566629 10.1742337 -2.77772522 10.15821838 C-0.09256784 10.31448486 -0.09256784 10.31448486 1 9 C1.14636054 5.63370749 1.07193479 3.21580438 0 0 Z" fill="#242320" transform="translate(519,571)"/>
<path d="M0 0 C2.31 0 4.62 0 7 0 C7 2.31 7 4.62 7 7 C9.31 7 11.62 7 14 7 C14 8.98 14 10.96 14 13 C11.69 13 9.38 13 7 13 C7 15.31 7 17.62 7 20 C5.02 20 3.04 20 1 20 C1 17.69 1 15.38 1 13 C-1.31 13 -3.62 13 -6 13 C-6 11.02 -6 9.04 -6 7 C-4.02 7 -2.04 7 0 7 C0 4.69 0 2.38 0 0 Z" fill="#161515" transform="translate(794,273)"/>
<path d="M0 0 C1.98 0 3.96 0 6 0 C6 2.31 6 4.62 6 7 C8.31 7 10.62 7 13 7 C13 8.98 13 10.96 13 13 C10.69 13 8.38 13 6 13 C6 15.31 6 17.62 6 20 C4.02 20 2.04 20 0 20 C0 17.69 0 15.38 0 13 C-2.31 13 -4.62 13 -7 13 C-7 11.02 -7 9.04 -7 7 C-4.69 7 -2.38 7 0 7 C0 4.69 0 2.38 0 0 Z" fill="#141413" transform="translate(772,273)"/>
<path d="M0 0 C0 0.33 0 0.66 0 1 C-0.84304687 1.17015625 -1.68609375 1.3403125 -2.5546875 1.515625 C-3.65039062 1.75796875 -4.74609375 2.0003125 -5.875 2.25 C-6.96554688 2.48203125 -8.05609375 2.7140625 -9.1796875 2.953125 C-12.08660401 3.73232393 -12.08660401 3.73232393 -13.40625 5.96875 C-14.10731899 8.36714391 -13.83103612 9.67309887 -13 12 C-13.99 11.67 -14.98 11.34 -16 11 C-15.33131686 14.11332248 -15.33131686 14.11332248 -12.9375 15.1875 C-12.298125 15.455625 -11.65875 15.72375 -11 16 C-11.33 16.66 -11.66 17.32 -12 18 C-18.29785459 17.05407718 -22.96066973 15.97841864 -28 12 C-27.81139305 8.60507481 -27.27722005 7.26929948 -24.8125 4.875 C-17.65225008 0.59970514 -8.14546959 -0.20805797 0 0 Z" fill="#E9E3D5" transform="translate(242,365)"/>
<path d="M0 0 C11.35366026 -0.15261151 22.60703849 0.3201495 33.9375 1 C35.60349276 1.09674868 37.26950836 1.19310495 38.93554688 1.2890625 C42.95730779 1.52153748 46.97872602 1.75925499 51 2 C51 2.33 51 2.66 51 3 C41.1 3 31.2 3 21 3 C21.99 3.66 22.98 4.32 24 5 C19.545 5.495 19.545 5.495 15 6 C15 6.33 15 6.66 15 7 C12.39555652 7.05394705 9.79223002 7.09364469 7.1875 7.125 C6.44951172 7.14175781 5.71152344 7.15851563 4.95117188 7.17578125 C1.08753574 7.21074628 -0.70903668 7.19397555 -4 5 C-2.35 4.67 -0.7 4.34 1 4 C0.67 2.68 0.34 1.36 0 0 Z" fill="#0F0F0F" transform="translate(247,386)"/>
<path d="M0 0 C2.3664856 -0.36076355 2.3664856 -0.36076355 5.36767578 -0.34057617 C6.48868683 -0.34034958 7.60969788 -0.34012299 8.76467896 -0.33988953 C9.97928802 -0.32440567 11.19389709 -0.30892181 12.4453125 -0.29296875 C14.30553543 -0.28660149 14.30553543 -0.28660149 16.20333862 -0.28010559 C19.50135463 -0.26613216 22.7989335 -0.23917361 26.09680176 -0.20599365 C29.46161542 -0.17531238 32.82649304 -0.16160446 36.19140625 -0.14648438 C42.79444271 -0.1133473 49.39718558 -0.06309697 56 0 C51.69888464 2.86741024 47.92562962 3.126394 42.8425293 3.11352539 C41.84186935 3.11344986 40.84120941 3.11337433 39.81022644 3.11329651 C38.7423439 3.10813522 37.67446136 3.10297394 36.57421875 3.09765625 C35.47149124 3.0962413 34.36876373 3.09482635 33.23262024 3.09336853 C29.71755233 3.08778004 26.20254859 3.07522959 22.6875 3.0625 C20.30143321 3.05748352 17.91536543 3.05292087 15.52929688 3.04882812 C9.6861761 3.03781437 3.84309263 3.02108764 -2 3 C-1.34 2.01 -0.68 1.02 0 0 Z" fill="#32312D" transform="translate(701,684)"/>
<path d="M0 0 C4.52536666 0.53239608 7.38839627 2.27123273 11 5 C13.4915904 8.7373856 13.45793285 10.57331583 13 15 C10.64037707 19.32597537 7.69536557 21.08704887 3.140625 22.5546875 C-2.48955104 23.7259285 -6.54895082 22.4988048 -11.3125 19.625 C-13.31252573 18.30246777 -14.92922266 17.07626258 -16.5625 15.31640625 C-17.036875 14.88199219 -17.51125 14.44757812 -18 14 C-20.65466049 14.23043864 -20.65466049 14.23043864 -23 15 C-23.9491946 18.21326257 -23.9491946 18.21326257 -24 22 C-20.60935346 27.76409911 -16.13681063 29.72710717 -10 32 C-10.66 32.66 -11.32 33.32 -12 34 C-18.66718705 30.8553857 -23.8559644 27.20371996 -28 21 C-28.6875 18.75390625 -28.6875 18.75390625 -29 17 C-27.21118264 15.99491199 -25.41885304 14.99607264 -23.625 14 C-22.62726563 13.443125 -21.62953125 12.88625 -20.6015625 12.3125 C-18 11 -18 11 -16 11 C-15.608125 11.7425 -15.21625 12.485 -14.8125 13.25 C-12.48360711 16.78349267 -9.9383969 18.62596974 -6 20 C-0.91674755 20.79626897 2.863738 20.51829495 7.5625 18.375 C10.17995964 16.17006161 10.17995964 16.17006161 11.0625 13.0625 C10.98477022 9.25374055 10.50432806 7.88377171 8 5 C5.42256188 3.44237499 2.76948181 2.17752315 0 1 C0 0.67 0 0.34 0 0 Z" fill="#0B0B0A" transform="translate(329,696)"/>
<path d="M0 0 C2.0622048 -0.054348 4.12482816 -0.09294961 6.1875 -0.125 C7.33605469 -0.14820313 8.48460937 -0.17140625 9.66796875 -0.1953125 C13.66299406 0.03886249 16.54351277 0.6795987 19.546875 3.40234375 C23.48043446 8.42146345 24.34712429 11.63605465 24 18 C23.34 18.66 22.68 19.32 22 20 C21.505 15.05 21.505 15.05 21 10 C20.67 11.32 20.34 12.64 20 14 C19.67 13.34 19.34 12.68 19 12 C17.68 15.63 16.36 19.26 15 23 C14.01 23 13.02 23 12 23 C12.495 22.319375 12.99 21.63875 13.5 20.9375 C15.36679746 17.28168831 15.42809639 15.06691572 15 11 C13.4493361 6.76705765 13.4493361 6.76705765 10.1875 3.87109375 C7.81440489 2.92609337 5.78953675 2.59907677 3.25 2.375 C2.45078125 2.30023438 1.6515625 2.22546875 0.828125 2.1484375 C0.22484375 2.09945313 -0.3784375 2.05046875 -1 2 C-0.67 1.34 -0.34 0.68 0 0 Z" fill="#F2EEE3" transform="translate(338,305)"/>
<path d="M0 0 C8.19256018 1.17286652 8.19256018 1.17286652 11.5625 4.625 C12.036875 5.40875 12.51125 6.1925 13 7 C-1.12504224 12.2669649 -14.94817263 12.26529193 -29.8125 12.125 C-31.68033371 12.1149448 -33.5481727 12.10582347 -35.41601562 12.09765625 C-39.94414309 12.0758562 -44.4720117 12.04146802 -49 12 C-49 11.67 -49 11.34 -49 11 C-47.94087402 10.97494385 -46.88174805 10.9498877 -45.79052734 10.92407227 C-41.84314873 10.82956076 -37.89592824 10.72944865 -33.94873047 10.62768555 C-32.2436901 10.58450154 -30.53861108 10.54281553 -28.83349609 10.50268555 C-26.37585833 10.44458028 -23.91841216 10.38100414 -21.4609375 10.31640625 C-20.32620499 10.29133751 -20.32620499 10.29133751 -19.16854858 10.26576233 C-15.03686254 10.15135432 -11.02874012 9.96234792 -7 9 C-6.67 8.34 -6.34 7.68 -6 7 C-5.34 7 -4.68 7 -4 7 C-4 7.66 -4 8.32 -4 9 C-1.69 8.34 0.62 7.68 3 7 C-0.73437848 6.12132271 -4.16774573 5.91087781 -8 6 C-5.33333333 4.66666667 -2.66666667 3.33333333 0 2 C0 1.34 0 0.68 0 0 Z" fill="#F3F0E9" transform="translate(309,333)"/>
<path d="M0 0 C6.15234375 -0.09765625 6.15234375 -0.09765625 8 0 C9 1 9 1 9 7 C14.94 6.505 14.94 6.505 21 6 C21.33 4.02 21.66 2.04 22 0 C24.97 0 27.94 0 31 0 C31.495 2.97 31.495 2.97 32 6 C34.475 6.495 34.475 6.495 37 7 C37 7.33 37 7.66 37 8 C34.69 8 32.38 8 30 8 C30 5.69 30 3.38 30 1 C27.69 1 25.38 1 23 1 C23 3.31 23 5.62 23 8 C20.69 8 18.38 8 16 8 C16 10.31 16 12.62 16 15 C13.69 15.33 11.38 15.66 9 16 C9 17.65 9 19.3 9 21 C8.67 21 8.34 21 8 21 C7.67 18.69 7.34 16.38 7 14 C9.31 14 11.62 14 14 14 C14 12.02 14 10.04 14 8 C11.69 8 9.38 8 7 8 C7 5.69 7 3.38 7 1 C5.02 1 3.04 1 1 1 C1 3.31 1 5.62 1 8 C-1.64 8 -4.28 8 -7 8 C-7 10.31 -7 12.62 -7 15 C-7.33 15 -7.66 15 -8 15 C-8 12.36 -8 9.72 -8 7 C-6.02 6.67 -4.04 6.34 -2 6 C-1.34 4.02 -0.68 2.04 0 0 Z" fill="#F4F2EA" transform="translate(771,272)"/>
<path d="M0 0 C1.1442897 0.00424484 2.28857941 0.00848969 3.46754456 0.01286316 C7.10490936 0.02959071 10.74171027 0.0672331 14.37890625 0.10546875 C16.85220551 0.12052319 19.3255135 0.13421027 21.79882812 0.14648438 C27.84654499 0.17947489 33.89393532 0.22961562 39.94140625 0.29296875 C39.94140625 0.62296875 39.94140625 0.95296875 39.94140625 1.29296875 C23.77140625 1.29296875 7.60140625 1.29296875 -9.05859375 1.29296875 C-9.05859375 1.95296875 -9.05859375 2.61296875 -9.05859375 3.29296875 C-9.62707031 3.34453125 -10.19554687 3.39609375 -10.78125 3.44921875 C-15.90282239 4.20163673 -18.53773791 5.30471676 -21.87109375 9.35546875 C-22.39316406 10.06832031 -22.91523437 10.78117188 -23.453125 11.515625 C-25.28377501 13.542257 -26.39669699 13.91764708 -29.05859375 14.29296875 C-25.89823769 7.97225663 -20.77728821 3.64388808 -14.28762817 0.93054199 C-9.63596474 -0.39997857 -4.79865576 -0.0674668 0 0 Z M-15.05859375 4.29296875 C-13.38316399 4.57901773 -11.71474032 4.91078108 -10.05859375 5.29296875 C-10.38859375 6.28296875 -10.71859375 7.27296875 -11.05859375 8.29296875 C-14.62109375 9.48046875 -14.62109375 9.48046875 -18.05859375 10.29296875 C-17.72859375 9.63296875 -17.39859375 8.97296875 -17.05859375 8.29296875 C-16.39859375 8.29296875 -15.73859375 8.29296875 -15.05859375 8.29296875 C-15.38859375 7.30296875 -15.71859375 6.31296875 -16.05859375 5.29296875 C-15.72859375 4.96296875 -15.39859375 4.63296875 -15.05859375 4.29296875 Z" fill="#0C0C0B" transform="translate(710.05859375,679.70703125)"/>
<path d="M0 0 C0.66 0.33 1.32 0.66 2 1 C2 18.16 2 35.32 2 53 C1.01 53 0.02 53 -1 53 C-1.02531773 45.93417118 -1.04285324 38.86835402 -1.05493164 31.80249023 C-1.05996598 29.39786339 -1.06679386 26.99323962 -1.07543945 24.58862305 C-1.08754429 21.13589725 -1.09323726 17.68321186 -1.09765625 14.23046875 C-1.10281754 13.15226364 -1.10797882 12.07405853 -1.11329651 10.96318054 C-1.11337204 9.96236954 -1.11344757 8.96155853 -1.11352539 7.93041992 C-1.115746 7.04883713 -1.11796661 6.16725433 -1.12025452 5.25895691 C-1 3 -1 3 0 0 Z" fill="#DAD5C6" transform="translate(685,701)"/>
<path d="M0 0 C2.64 0 5.28 0 8 0 C8.495 1.485 8.495 1.485 9 3 C11.97 3 14.94 3 18 3 C18 3.33 18 3.66 18 4 C12.39 4 6.78 4 1 4 C1 4.33 1 4.66 1 5 C-3.78657309 5.21710487 -8.57338856 5.41395012 -13.36157227 5.59204102 C-14.99037954 5.65547997 -16.61898094 5.72445596 -18.24731445 5.79907227 C-20.5877328 5.90535765 -22.9281687 5.99172142 -25.26953125 6.07421875 C-25.99775589 6.11157639 -26.72598053 6.14893402 -27.47627258 6.18742371 C-32.55384196 6.33850449 -32.55384196 6.33850449 -34.9831543 4.49536133 C-35.48649292 3.75515747 -35.48649292 3.75515747 -36 3 C-32.9450722 1.4725361 -29.7236686 1.76008168 -26.3671875 1.68359375 C-25.61535187 1.66281265 -24.86351624 1.64203156 -24.08889771 1.62062073 C-21.68435915 1.55517295 -19.27971033 1.49626262 -16.875 1.4375 C-15.24608229 1.39431023 -13.61717578 1.35069579 -11.98828125 1.30664062 C-7.99230085 1.19949649 -3.99620941 1.09821567 0 1 C0 0.67 0 0.34 0 0 Z" fill="#DED6C4" transform="translate(295,381)"/>
<path d="M0 0 C1.32 0 2.64 0 4 0 C4 0.66 4 1.32 4 2 C10.6 2 17.2 2 24 2 C24 2.66 24 3.32 24 4 C28.95 4 33.9 4 39 4 C39 4.33 39 4.66 39 5 C33.51904631 5.02473355 28.03812517 5.04287596 22.55712891 5.05493164 C20.69286534 5.05995792 18.8286057 5.06677992 16.96435547 5.07543945 C14.28351876 5.08757963 11.6027342 5.09324539 8.921875 5.09765625 C8.08944275 5.10281754 7.2570105 5.10797882 6.39935303 5.11329651 C5.61884583 5.11337204 4.83833862 5.11344757 4.03417969 5.11352539 C3.35023132 5.115746 2.66628296 5.11796661 1.96160889 5.12025452 C-0.12821596 4.99213985 -1.98847744 4.56725751 -4 4 C-4 4.66 -4 5.32 -4 6 C-5.43655854 6.08131463 -6.8744483 6.13933559 -8.3125 6.1875 C-9.51326172 6.23970703 -9.51326172 6.23970703 -10.73828125 6.29296875 C-13.47851584 5.93801608 -14.29171079 5.10633718 -16 3 C-14.92878906 2.95101563 -13.85757813 2.90203125 -12.75390625 2.8515625 C-11.35674361 2.77654706 -9.9596095 2.7009987 -8.5625 2.625 C-7.85544922 2.5940625 -7.14839844 2.563125 -6.41992188 2.53125 C-4.60760812 2.42719371 -2.80182012 2.22080108 -1 2 C-0.67 1.34 -0.34 0.68 0 0 Z" fill="#252424" transform="translate(268,388)"/>
<path d="M0 0 C1.6875 1.5625 1.6875 1.5625 3 3 C2.34 4.98 1.68 6.96 1 9 C4.3 9.66 7.6 10.32 11 11 C11 11.33 11 11.66 11 12 C3.26903941 12.42949781 -3.67972773 11.32419059 -10.125 6.8125 C-10.74375 6.214375 -11.3625 5.61625 -12 5 C-11 2 -11 2 -9.2578125 1.015625 C-8.55398437 0.76296875 -7.85015625 0.5103125 -7.125 0.25 C-6.07699219 -0.14445312 -6.07699219 -0.14445312 -5.0078125 -0.546875 C-3 -1 -3 -1 0 0 Z" fill="#ECE7DA" transform="translate(260,355)"/>
<path d="M0 0 C2.10353495 -0.0810206 4.20795952 -0.13919907 6.3125 -0.1875 C7.48425781 -0.22230469 8.65601563 -0.25710938 9.86328125 -0.29296875 C13 0 13 0 16 3 C11.545 3.495 11.545 3.495 7 4 C7 3.34 7 2.68 7 2 C6.34 2.33 5.68 2.66 5 3 C5.495 3.99 5.495 3.99 6 5 C-1.96649849 6.3173767 -9.95194375 6.11089426 -18 6.0625 C-19.45702971 6.05747576 -20.9140611 6.05291449 -22.37109375 6.04882812 C-25.9140977 6.03789388 -29.45703797 6.02068 -33 6 C-33 5.67 -33 5.34 -33 5 C-27.06 4.67 -21.12 4.34 -15 4 C-15 3.67 -15 3.34 -15 3 C-10.05 2.34 -5.1 1.68 0 1 C0 0.67 0 0.34 0 0 Z" fill="#E1DAC6" transform="translate(298,338)"/>
<path d="M0 0 C1.258125 -0.04125 2.51625 -0.0825 3.8125 -0.125 C4.52019531 -0.14820313 5.22789062 -0.17140625 5.95703125 -0.1953125 C8 0 8 0 11 2 C11 2.66 11 3.32 11 4 C11.66 4.33 12.32 4.66 13 5 C7.10799549 5.85481391 1.41741829 6.1344851 -4.53125 6.09765625 C-5.84603333 6.09553383 -5.84603333 6.09553383 -7.18737793 6.09336853 C-9.95828821 6.08781768 -12.72911457 6.07527461 -15.5 6.0625 C-17.39062382 6.05747864 -19.28124893 6.05291685 -21.171875 6.04882812 C-25.78128183 6.0378644 -30.39062673 6.02063425 -35 6 C-35 5.67 -35 5.34 -35 5 C-29.06 4.505 -29.06 4.505 -23 4 C-23 3.67 -23 3.34 -23 3 C-15.08 3 -7.16 3 1 3 C0.505 1.515 0.505 1.515 0 0 Z" fill="#F3F0E7" transform="translate(303,381)"/>
<path d="M0 0 C11.01203902 -0.06669472 21.99476278 0.12251834 33 0.5 C34.46874213 0.5484165 35.93749214 0.59659444 37.40625 0.64453125 C40.93759455 0.76028969 44.46882353 0.87921012 48 1 C48 1.33 48 1.66 48 2 C34.47 2.33 20.94 2.66 7 3 C8.32 3.66 9.64 4.32 11 5 C8.64575325 5.02726927 6.29183038 5.04696719 3.9375 5.0625 C1.97103516 5.07990234 1.97103516 5.07990234 -0.03515625 5.09765625 C-3.8163519 5.00452335 -7.27920707 4.61448726 -11 4 C-8.09907498 2.06604999 -7.10325263 1.69868059 -3.8125 1.375 C-2.554375 1.25125 -1.29625 1.1275 0 1 C0 0.67 0 0.34 0 0 Z" fill="#F3F1EA" transform="translate(254,381)"/>
<path d="M0 0 C0.33 0 0.66 0 1 0 C1.09277517 8.1277674 1.16380244 16.25531272 1.20724869 24.38347912 C1.22810327 28.15794293 1.2563809 31.93204385 1.30175781 35.70629883 C1.3452932 39.3502845 1.36915313 42.99392164 1.37950897 46.63814735 C1.38688669 48.02682289 1.40129401 49.41547985 1.42292023 50.80400658 C1.45205017 52.75220431 1.45363471 54.70075447 1.45410156 56.64916992 C1.46298401 57.7572551 1.47186646 58.86534027 1.48101807 60.00700378 C0.88850376 63.69375322 -0.4288506 65.34428957 -3 68 C-6.48035404 69.74017702 -10.20334156 69.59542873 -14 69 C-16.34430762 67.57905206 -17.99366548 65.91301663 -20 64 C-22.21735439 63.14720662 -22.21735439 63.14720662 -24 63 C-22.35 62.34 -20.7 61.68 -19 61 C-18.38125 61.804375 -17.7625 62.60875 -17.125 63.4375 C-15.25835959 66.03874519 -15.25835959 66.03874519 -13 67 C-8.11038194 67.37403391 -8.11038194 67.37403391 -3.625 65.6875 C-0.59536643 62.54134206 -0.8545753 59.20985977 -0.79467773 55.05981445 C-0.77473251 53.83877518 -0.75478729 52.6177359 -0.73423767 51.35969543 C-0.71752518 50.04087875 -0.70081268 48.72206207 -0.68359375 47.36328125 C-0.6630174 45.99992756 -0.64202075 44.63658015 -0.62062073 43.27323914 C-0.5654703 39.68778578 -0.51603013 36.10227552 -0.46777344 32.51672363 C-0.41750701 28.8568008 -0.36184781 25.19696043 -0.30664062 21.53710938 C-0.19914506 14.35814279 -0.0976811 7.17910755 0 0 Z" fill="#020202" transform="translate(273,647)"/>
<path d="M0 0 C-3.6441774 2.4294516 -5.71241272 2.16179575 -10 2 C-10 2.66 -10 3.32 -10 4 C-19.57 4 -29.14 4 -39 4 C-39 3.34 -39 2.68 -39 2 C-40.65 2 -42.3 2 -44 2 C-44 1.67 -44 1.34 -44 1 C-38.53737477 0.856758 -33.07472827 0.71436614 -27.61206055 0.57275391 C-25.75463262 0.52448378 -23.89721065 0.47598343 -22.03979492 0.42724609 C-19.36638916 0.35713805 -16.69296286 0.28786439 -14.01953125 0.21875 C-13.19226028 0.19687622 -12.36498932 0.17500244 -11.51264954 0.15246582 C-7.6738819 0.05398825 -3.84045369 -0.02711706 0 0 Z" fill="#D8D4C8" transform="translate(304,356)"/>
<path d="M0 0 C3.84478875 1.45836815 5.1822915 3.36458299 7 7 C8.05400078 10.29019163 8.10347976 13.30769976 8.0625 16.75 C8.05347656 17.73484375 8.04445313 18.7196875 8.03515625 19.734375 C8.02355469 20.48203125 8.01195312 21.2296875 8 22 C7.0925 21.87625 6.185 21.7525 5.25 21.625 C4.1775 21.74875 3.105 21.8725 2 22 C-0.42422186 24.88509913 -0.42422186 24.88509913 -2 28 C-2 24.76140799 -1.35100755 23.38965504 0 20.5 C2.272531 15.00402078 2.80987076 9.8951058 2 4 C1.05831935 1.74880235 1.05831935 1.74880235 0 0 Z" fill="#EBE5D7" transform="translate(304,196)"/>
<path d="M0 0 C1.25598999 0.08302368 1.25598999 0.08302368 2.53735352 0.16772461 C23.02021795 1.50577319 43.47996903 2.46925375 64 3 C64 3.33 64 3.66 64 4 C51.13 4 38.26 4 25 4 C25 4.33 25 4.66 25 5 C16.78132885 5.51129982 8.88549869 4.39087443 1 2 C0.67 1.34 0.34 0.68 0 0 Z" fill="#FBF9F5" transform="translate(244,392)"/>
<path d="M0 0 C2.47218822 2.47218822 2.26532401 3.22562875 2.31884766 6.63330078 C2.33871735 7.59414581 2.35858704 8.55499084 2.37905884 9.54495239 C2.39638565 11.10438065 2.39638565 11.10438065 2.4140625 12.6953125 C2.43342865 13.75789276 2.4527948 14.82047302 2.4727478 15.91525269 C2.53266084 19.31841943 2.57897598 22.72161978 2.625 26.125 C2.66316897 28.4284004 2.70222005 30.73178636 2.7421875 33.03515625 C2.83837206 38.6899873 2.92235974 44.34488516 3 50 C3.33 43.73 3.66 37.46 4 31 C4.33 31 4.66 31 5 31 C5.22567411 34.77000648 5.42755846 38.54091787 5.625 42.3125 C5.68945312 43.38435547 5.75390625 44.45621094 5.8203125 45.56054688 C5.871875 46.58857422 5.9234375 47.61660156 5.9765625 48.67578125 C6.02893066 49.62364502 6.08129883 50.57150879 6.13525391 51.5480957 C6 54 6 54 4 57 C3.34 57 2.68 57 2 57 C2.33 55.68 2.66 54.36 3 53 C2.34 53 1.68 53 1 53 C0.67 53.66 0.34 54.32 0 55 C0 36.85 0 18.7 0 0 Z" fill="#262626" transform="translate(770,612)"/>
<path d="M0 0 C0.07427838 3.34252724 0.06546953 5.8035914 -1 9 C-1.08209792 10.77313851 -1.10746294 12.54920775 -1.09765625 14.32421875 C-1.09443359 15.35224609 -1.09121094 16.38027344 -1.08789062 17.43945312 C-1.07951172 18.51130859 -1.07113281 19.58316406 -1.0625 20.6875 C-1.05798828 21.77095703 -1.05347656 22.85441406 -1.04882812 23.97070312 C-1.03703743 26.64719085 -1.02058063 29.32356777 -1 32 C-0.67 32 -0.34 32 0 32 C0 34.64 0 37.28 0 40 C-0.99 39.67 -1.98 39.34 -3 39 C-5.43457238 12.82834693 -5.43457238 12.82834693 -3 1 C-1 0 -1 0 0 0 Z" fill="#252422" transform="translate(562,458)"/>
<path d="M0 0 C2.125 0.375 2.125 0.375 4 1 C4.05401695 3.91691525 4.09368066 6.83282724 4.125 9.75 C4.15013672 10.9875 4.15013672 10.9875 4.17578125 12.25 C4.18222656 13.04921875 4.18867187 13.8484375 4.1953125 14.671875 C4.20578613 15.4050293 4.21625977 16.13818359 4.22705078 16.89355469 C3.96777544 19.29896076 3.19225925 20.91251494 2 23 C1.34 23 0.68 23 0 23 C-0.06058594 22.15695312 -0.12117187 21.31390625 -0.18359375 20.4453125 C-0.26738281 19.34960938 -0.35117187 18.25390625 -0.4375 17.125 C-0.51871094 16.03445313 -0.59992187 14.94390625 -0.68359375 13.8203125 C-0.83001703 11.05271029 -0.83001703 11.05271029 -2 9 C-2.1875 5.5 -2.1875 5.5 -2 2 C-1.34 1.34 -0.68 0.68 0 0 Z" fill="#242423" transform="translate(679,702)"/>
<path d="M0 0 C3.72890255 -0.1164862 7.45733514 -0.18734576 11.1875 -0.25 C12.77014648 -0.30027344 12.77014648 -0.30027344 14.38476562 -0.3515625 C22.27522481 -0.45112665 22.27522481 -0.45112665 26.23828125 2.015625 C27.11033203 2.99789063 27.11033203 2.99789063 28 4 C27.67 4.66 27.34 5.32 27 6 C26.34 5.34 25.68 4.68 25 4 C22.18288521 3.72138603 22.18288521 3.72138603 18.8984375 3.8046875 C17.68671875 3.81113281 16.475 3.81757813 15.2265625 3.82421875 C13.95554687 3.84097656 12.68453125 3.85773438 11.375 3.875 C9.456875 3.88853516 9.456875 3.88853516 7.5 3.90234375 C4.33314833 3.92597697 1.16666576 3.95892371 -2 4 C-2.99 5.98 -3.98 7.96 -5 10 C-5.33 9.34 -5.66 8.68 -6 8 C-5.06553465 5.96855359 -4.06775224 3.96466413 -3 2 C-2.01 2 -1.02 2 0 2 C0 1.34 0 0.68 0 0 Z" fill="#2B2A27" transform="translate(417,376)"/>
<path d="M0 0 C11.22 0 22.44 0 34 0 C34 0.33 34 0.66 34 1 C29.05 1.33 24.1 1.66 19 2 C19.99 2.99 20.98 3.98 22 5 C13.75 5 5.5 5 -3 5 C-3 4.67 -3 4.34 -3 4 C1.95 3.67 6.9 3.34 12 3 C6.06 2.01 6.06 2.01 0 1 C0 0.67 0 0.34 0 0 Z" fill="#F8F6EF" transform="translate(256,319)"/>
<path d="M0 0 C3.32522927 0.44725306 6.65502247 0.74424719 10 1 C9.67 1.66 9.34 2.32 9 3 C4.03625887 3.68688846 -0.99395881 3.80956631 -6 4 C-7.65128906 4.06380859 -7.65128906 4.06380859 -9.3359375 4.12890625 C-16.58791477 4.27472349 -16.58791477 4.27472349 -20 2 C-17.36 1.34 -14.72 0.68 -12 0 C-12 -0.33 -12 -0.66 -12 -1 C-7.4039017 -2.39275706 -4.52903069 -1.33643528 0 0 Z" fill="#E4DECF" transform="translate(259,320)"/>
<path d="M0 0 C0.99 0 1.98 0 3 0 C3 7.59 3 15.18 3 23 C2.34 23 1.68 23 1 23 C0.7525 23.78375 0.505 24.5675 0.25 25.375 C-1.15389099 28.32317108 -2.00675737 28.9024777 -5 30 C-4.35546875 29.26523437 -3.7109375 28.53046875 -3.046875 27.7734375 C0.19025241 22.91774639 -0.32307821 17.2653089 -0.25 11.625 C-0.22035156 10.50738281 -0.19070313 9.38976562 -0.16015625 8.23828125 C-0.08974176 5.4921161 -0.03690377 2.74678596 0 0 Z" fill="#252422" transform="translate(769,732)"/>
<path d="M0 0 C0.66 0.33 1.32 0.66 2 1 C2.484375 3.65234375 2.484375 3.65234375 2.75 6.9375 C2.89695312 8.55978516 2.89695312 8.55978516 3.046875 10.21484375 C3 13 3 13 1 15 C-2.81096322 17.75236233 -5.31910064 18.32657437 -10 18 C-9 16 -9 16 -6 15 C-4.55967033 12.3220676 -4.55967033 12.3220676 -3.375 9.125 C-2.73691406 7.52011719 -2.73691406 7.52011719 -2.0859375 5.8828125 C-1.35251326 3.93580859 -0.65793125 1.97379376 0 0 Z" fill="#E4DDCA" transform="translate(358,313)"/>
<path d="M0 0 C0.86778076 0.00298096 1.73556152 0.00596191 2.62963867 0.0090332 C3.58547852 0.00967773 4.54131836 0.01032227 5.52612305 0.01098633 C6.52321289 0.02709961 7.52030273 0.04321289 8.54760742 0.05981445 C9.5330957 0.0565918 10.51858398 0.05336914 11.53393555 0.05004883 C16.64907378 0.08783695 20.95321525 0.33453018 25.73510742 2.37231445 C25.73510742 2.70231445 25.73510742 3.03231445 25.73510742 3.37231445 C15.50510742 3.37231445 5.27510742 3.37231445 -5.26489258 3.37231445 C-2.26489258 0.37231445 -2.26489258 0.37231445 0 0 Z" fill="#262523" transform="translate(715.264892578125,590.627685546875)"/>
<path d="M0 0 C5.1961774 4.59661847 10.01277017 10.52720445 10.875 17.5625 C10.91625 18.696875 10.9575 19.83125 11 21 C10.46890625 20.31550781 9.9378125 19.63101562 9.390625 18.92578125 C6.63500116 15.5532939 3.71816378 12.37224032 0.75 9.1875 C0.19570313 8.59001953 -0.35859375 7.99253906 -0.9296875 7.37695312 C-2.28493674 5.91655524 -3.64225682 4.45807955 -5 3 C-4.67 2.34 -4.34 1.68 -4 1 C-1.69 3.31 0.62 5.62 3 8 C2.505 7.05125 2.01 6.1025 1.5 5.125 C0 2 0 2 0 0 Z" fill="#EEEBE2" transform="translate(272,283)"/>
<path d="M0 0 C2 2 2 2 2 4.8125 C0.46447719 9.70697895 -2.67187457 11.68838004 -6.94140625 14.09375 C-15.00374278 18.01356002 -24.03395691 20.26884687 -33 20 C-29.3261234 17.8655627 -25.4093473 17.06178926 -21.3125 16.125 C-10.55216411 13.87037635 -10.55216411 13.87037635 -2 7.5625 C-1.01321121 5.03385372 -0.38356814 2.684977 0 0 Z" fill="#F1F0EC" transform="translate(351,365)"/>
<path d="M0 0 C0.33 0 0.66 0 1 0 C1 9.9 1 19.8 1 30 C0.34 30.33 -0.32 30.66 -1 31 C-2.25812373 25.44417582 -2.18398986 20.04738918 -2.1875 14.375 C-2.19974609 13.32570313 -2.21199219 12.27640625 -2.22460938 11.1953125 C-2.22654297 10.18984375 -2.22847656 9.184375 -2.23046875 8.1484375 C-2.23457764 7.23239746 -2.23868652 6.31635742 -2.24291992 5.37255859 C-2 3 -2 3 0 0 Z" fill="#302E2B" transform="translate(678,411)"/>
<path d="M0 0 C0 4.38968456 -2.12805101 5.76905739 -5 9 C-3.68 9.66 -2.36 10.32 -1 11 C-4.96 12.98 -4.96 12.98 -9 15 C-9.33 13.35 -9.66 11.7 -10 10 C-11.65 10.33 -13.3 10.66 -15 11 C-15 10.34 -15 9.68 -15 9 C-14.33613281 8.76925781 -13.67226563 8.53851562 -12.98828125 8.30078125 C-7.5009982 6.2740913 -3.76134878 4.51361854 0 0 Z" fill="#0F0F0F" transform="translate(766,670)"/>
<path d="M0 0 C0.66 0.33 1.32 0.66 2 1 C2.99 1.33 3.98 1.66 5 2 C5.66 1.34 6.32 0.68 7 0 C6.34 2.97 5.68 5.94 5 9 C3.35 9 1.7 9 0 9 C-0.33 10.98 -0.66 12.96 -1 15 C-1.33 15 -1.66 15 -2 15 C-2.05429959 13.25034642 -2.09292823 11.50020213 -2.125 9.75 C-2.15980469 8.28820312 -2.15980469 8.28820312 -2.1953125 6.796875 C-1.99862781 3.9803502 -1.44568916 2.39050964 0 0 Z" fill="#131312" transform="translate(680,695)"/>
<path d="M0 0 C-0.83144531 0.33773438 -1.66289062 0.67546875 -2.51953125 1.0234375 C-3.60621094 1.46945312 -4.69289062 1.91546875 -5.8125 2.375 C-6.89144531 2.81585938 -7.97039062 3.25671875 -9.08203125 3.7109375 C-12.10730112 4.9479119 -12.10730112 4.9479119 -15 7 C-14.67 6.01 -14.34 5.02 -14 4 C-15.75029762 4.31082872 -17.50022694 4.62373179 -19.25 4.9375 C-20.22453125 5.11152344 -21.1990625 5.28554688 -22.203125 5.46484375 C-24.49721795 5.90379729 -26.74291971 6.40348592 -29 7 C-26.29369943 3.35690309 -22.44096169 2.83096754 -18.25 1.875 C-17.5590625 1.70613281 -16.868125 1.53726562 -16.15625 1.36328125 C-4.35896427 -1.45298809 -4.35896427 -1.45298809 0 0 Z" fill="#F4F3ED" transform="translate(258,309)"/>
<path d="M0 0 C-0.99 0.495 -0.99 0.495 -2 1 C-2 1.99 -2 2.98 -2 4 C-8.14778871 5.6277833 -13.64012196 6.20190089 -20 6 C-19.360625 5.87625 -18.72125 5.7525 -18.0625 5.625 C-17.381875 5.41875 -16.70125 5.2125 -16 5 C-15.67 4.34 -15.34 3.68 -15 3 C-13.35 3 -11.7 3 -10 3 C-10 2.34 -10 1.68 -10 1 C-6.61981469 -0.04005702 -3.5219721 -0.08004482 0 0 Z" fill="#F1EEE5" transform="translate(337,391)"/>
<path d="M0 0 C0.66 0.33 1.32 0.66 2 1 C-1.79926481 6.40664607 -5.37556083 8.5343737 -11.875 9.6875 C-12.90625 9.790625 -13.9375 9.89375 -15 10 C-15 9.01 -15 8.02 -15 7 C-14.16855469 6.66226562 -13.33710938 6.32453125 -12.48046875 5.9765625 C-11.39378906 5.53054688 -10.30710937 5.08453125 -9.1875 4.625 C-8.10855469 4.18414062 -7.02960938 3.74328125 -5.91796875 3.2890625 C-2.89269888 2.0520881 -2.89269888 2.0520881 0 0 Z" fill="#DFDACE" transform="translate(361,380)"/>
<path d="M0 0 C2.6962368 0.98862016 3.79838619 1.6322354 5.19921875 4.1875 C6.90973588 10.19516991 4.41765753 17.18146196 1.6796875 22.625 C0.52890308 24.46625507 -0.72495521 26.24250582 -2 28 C-2 24.76140799 -1.35100755 23.38965504 0 20.5 C2.272531 15.00402078 2.80987076 9.8951058 2 4 C1.05831935 1.74880235 1.05831935 1.74880235 0 0 Z" fill="#EFEDE6" transform="translate(304,196)"/>
<path d="M0 0 C3.46223106 0.30775387 5.80059202 1.56893508 8.8125 3.25 C5.67980295 6.38269705 2.83921577 6.30494397 -1.4375 6.3125 C-3.29375 6.2815625 -3.29375 6.2815625 -5.1875 6.25 C-2.91163793 0.33275862 -2.91163793 0.33275862 0 0 Z" fill="#EDE8DB" transform="translate(249.1875,334.75)"/>
<path d="M0 0 C2.10409639 -0.02701408 4.20829178 -0.04640223 6.3125 -0.0625 C7.48425781 -0.07410156 8.65601563 -0.08570313 9.86328125 -0.09765625 C13 0 13 0 16 1 C15 3 15 3 14 4 C14.99 5.485 14.99 5.485 16 7 C15.67 7.99 15.34 8.98 15 10 C14.5875 9.21625 14.175 8.4325 13.75 7.625 C11.86957394 4.80436091 11.05765594 4.22306238 8 3 C5.64435404 2.55188863 5.64435404 2.55188863 3.25 2.375 C2.45078125 2.30023438 1.6515625 2.22546875 0.828125 2.1484375 C0.22484375 2.09945313 -0.3784375 2.05046875 -1 2 C-0.67 1.34 -0.34 0.68 0 0 Z" fill="#F5F3EE" transform="translate(338,305)"/>
<path d="M0 0 C0.66 0 1.32 0 2 0 C4.59227518 4.86051596 4.18689553 9.65271133 4 15 C3.01 15.33 2.02 15.66 1 16 C0.67 16.99 0.34 17.98 0 19 C0.08378906 17.96359375 0.16757812 16.9271875 0.25390625 15.859375 C0.35710782 14.48960868 0.45995374 13.11981553 0.5625 11.75 C0.61857422 11.06808594 0.67464844 10.38617187 0.73242188 9.68359375 C0.98186254 6.2579419 1.13879745 3.27298823 0 0 Z" fill="#242422" transform="translate(355,697)"/>
<path d="M0 0 C-5.00822704 2.39281958 -9.45377774 4.2765797 -15 5 C-17.35407924 5.60765867 -19.67058359 6.30117508 -22 7 C-19.65276062 4.31524908 -17.43528366 3.15282986 -14.125 1.875 C-13.28195312 1.54242188 -12.43890625 1.20984375 -11.5703125 0.8671875 C-7.39257397 -0.54232307 -4.27177926 -1.42392642 0 0 Z" fill="#EFEEE9" transform="translate(331,241)"/>
<path d="M0 0 C0.99 0.66 1.98 1.32 3 2 C2.34 2.556875 1.68 3.11375 1 3.6875 C-1.25492211 5.84062308 -1.25492211 5.84062308 -1.25 8.75 C-1.1675 9.4925 -1.085 10.235 -1 11 C-3.6666419 12.33332095 -5.16680303 11.67102033 -8 11 C-8 8 -8 8 -6.50390625 6.46484375 C-5.86324219 5.96082031 -5.22257813 5.45679688 -4.5625 4.9375 C-1.84124807 2.8328667 -1.84124807 2.8328667 0 0 Z" fill="#202020" transform="translate(768,669)"/>
<path d="M0 0 C0.66 0.66 1.32 1.32 2 2 C0.67935547 2.09087891 0.67935547 2.09087891 -0.66796875 2.18359375 C-2.41013672 2.30927734 -2.41013672 2.30927734 -4.1875 2.4375 C-5.91033203 2.55931641 -5.91033203 2.55931641 -7.66796875 2.68359375 C-10.93052196 2.90227604 -10.93052196 2.90227604 -13.73828125 3.72265625 C-14.48464844 3.81417969 -15.23101562 3.90570313 -16 4 C-17.8125 2.5625 -17.8125 2.5625 -19 1 C-16.58440932 0.63645961 -14.16805703 0.28389449 -11.75 -0.0625 C-11.06808594 -0.16626953 -10.38617188 -0.27003906 -9.68359375 -0.37695312 C-3.12171172 -1.30071322 -3.12171172 -1.30071322 0 0 Z" fill="#E1DAC9" transform="translate(257,381)"/>
<path d="M0 0 C2.22941405 0.31073024 4.45852212 0.62365625 6.6875 0.9375 C7.92886719 1.11152344 9.17023438 1.28554688 10.44921875 1.46484375 C13.32474548 1.89822897 16.15644813 2.39649282 19 3 C19 3.33 19 3.66 19 4 C14.05 4.33 9.1 4.66 4 5 C4.33 4.01 4.66 3.02 5 2 C3.35 1.67 1.7 1.34 0 1 C0 0.67 0 0.34 0 0 Z" fill="#F2EFE4" transform="translate(234,377)"/>
<path d="M0 0 C0 0.99 0 1.98 0 3 C-3.039486 5.86580109 -5.97509059 7.83489464 -10 9 C-10.99 8.67 -11.98 8.34 -13 8 C-6.04415997 1.44507294 -6.04415997 1.44507294 -1 1 C-0.67 0.67 -0.34 0.34 0 0 Z" fill="#EBE7DD" transform="translate(345,335)"/>
<path d="M0 0 C1.93166016 0.01740234 1.93166016 0.01740234 3.90234375 0.03515625 C5.19269531 0.04417969 6.48304688 0.05320312 7.8125 0.0625 C8.81152344 0.07410156 9.81054688 0.08570313 10.83984375 0.09765625 C10.83984375 0.75765625 10.83984375 1.41765625 10.83984375 2.09765625 C8.85984375 2.42765625 6.87984375 2.75765625 4.83984375 3.09765625 C4.83984375 3.42765625 4.83984375 3.75765625 4.83984375 4.09765625 C1.69359382 4.35984374 0.22147358 4.34519992 -2.47265625 2.59765625 C-3.02953125 2.10265625 -3.58640625 1.60765625 -4.16015625 1.09765625 C-3.16015625 0.09765625 -3.16015625 0.09765625 0 0 Z" fill="#E5DCC9" transform="translate(278.16015625,319.90234375)"/>
<path d="M0 0 C0.74886475 0.00523682 1.49772949 0.01047363 2.26928711 0.01586914 C3.07817383 0.0190918 3.88706055 0.02231445 4.72045898 0.02563477 C5.5705957 0.03401367 6.42073242 0.04239258 7.29663086 0.05102539 C8.15063477 0.05553711 9.00463867 0.06004883 9.88452148 0.06469727 C12.00108749 0.07652166 14.11761771 0.0944577 16.23413086 0.11352539 C16.23413086 0.44352539 16.23413086 0.77352539 16.23413086 1.11352539 C14.58413086 1.44352539 12.93413086 1.77352539 11.23413086 2.11352539 C11.23413086 2.44352539 11.23413086 2.77352539 11.23413086 3.11352539 C9.27609579 3.16741626 7.31764177 3.20626756 5.35913086 3.23852539 C4.26858398 3.26172852 3.17803711 3.28493164 2.05444336 3.30883789 C-0.76586914 3.11352539 -0.76586914 3.11352539 -2.76586914 1.11352539 C-1.76586914 0.11352539 -1.76586914 0.11352539 0 0 Z" fill="#262523" transform="translate(274.765869140625,315.886474609375)"/>
<path d="M0 0 C0 0.66 0 1.32 0 2 C-8.42857143 4.28571429 -8.42857143 4.28571429 -13 4 C-13.33 3.01 -13.66 2.02 -14 1 C-9.32798795 -0.20568053 -4.78503708 -0.09382426 0 0 Z" fill="#F2F0EA" transform="translate(327,315)"/>
<path d="M0 0 C-0.33 0.99 -0.66 1.98 -1 3 C-7.93 2.67 -14.86 2.34 -22 2 C-22 1.67 -22 1.34 -22 1 C-14.65623924 0.42240084 -7.36901413 -0.14738028 0 0 Z" fill="#E0D9C9" transform="translate(743,768)"/>
<path d="M0 0 C0.33 0 0.66 0 1 0 C1.1953125 6.0546875 1.1953125 6.0546875 1 8 C0.34 8.66 -0.32 9.32 -1 10 C-1.99 10 -2.98 10 -4 10 C-4.33 10.66 -4.66 11.32 -5 12 C-3.02 12 -1.04 12 1 12 C1 12.33 1 12.66 1 13 C-1.31 13 -3.62 13 -6 13 C-6 11.02 -6 9.04 -6 7 C-4.02 7 -2.04 7 0 7 C0 4.69 0 2.38 0 0 Z" fill="#1E1D1C" transform="translate(794,273)"/>
<path d="M0 0 C0.66 0.33 1.32 0.66 2 1 C1.2884375 1.928125 1.2884375 1.928125 0.5625 2.875 C-1.02417441 4.90705546 -1.02417441 4.90705546 -2 7 C-3.66279327 8.0064275 -5.32983484 9.00585407 -7 10 C-8.75149165 11.58245275 -8.75149165 11.58245275 -10 13 C-10.66 12.67 -11.32 12.34 -12 12 C-8.04 8.04 -4.08 4.08 0 0 Z" fill="#F7F5EB" transform="translate(558,400)"/>
<path d="M0 0 C-0.33 0.66 -0.66 1.32 -1 2 C-2.2065625 1.9690625 -2.2065625 1.9690625 -3.4375 1.9375 C-5.93354885 1.70366379 -5.93354885 1.70366379 -7 3 C-9.33297433 3.04092937 -11.66705225 3.04241723 -14 3 C-13.67 2.01 -13.34 1.02 -13 0 C-11.58456585 -0.19658808 -10.16755969 -0.38187546 -8.75 -0.5625 C-7.96109375 -0.66691406 -7.1721875 -0.77132813 -6.359375 -0.87890625 C-3.99467126 -1.00027349 -2.2488963 -0.69633257 0 0 Z" fill="#D9D4C6" transform="translate(328,393)"/>
<path d="M0 0 C1.98 0 3.96 0 6 0 C6 0.99 6 1.98 6 3 C7.65 3 9.3 3 11 3 C10.67 3.99 10.34 4.98 10 6 C8.35 5.67 6.7 5.34 5 5 C5 4.34 5 3.68 5 3 C3.02 3 1.04 3 -1 3 C-0.67 2.01 -0.34 1.02 0 0 Z" fill="#D9D4C8" transform="translate(309,380)"/>
<path d="M0 0 C2.8992226 0.46761655 3.86675182 0.86675182 6 3 C4.68 3 3.36 3 2 3 C2 3.66 2 4.32 2 5 C2.99 5.33 3.98 5.66 5 6 C2.69 6 0.38 6 -2 6 C-1.125 1.125 -1.125 1.125 0 0 Z" fill="#232322" transform="translate(246,385)"/>
<path d="M0 0 C1.77155654 0.11429397 3.54226229 0.24183037 5.3125 0.375 C6.79169922 0.47941406 6.79169922 0.47941406 8.30078125 0.5859375 C11 1 11 1 14 3 C8.87160006 4.81975482 4.82315618 2.8599099 0 1 C0 0.67 0 0.34 0 0 Z" fill="#EEEBE7" transform="translate(244,392)"/>
<path d="M0 0 C0.66 0.33 1.32 0.66 2 1 C-1.44615385 5.8 -1.44615385 5.8 -4.25 6.8125 C-5.11625 6.9053125 -5.11625 6.9053125 -6 7 C-5.8125 5.1875 -5.8125 5.1875 -5 3 C-2.5625 1.1875 -2.5625 1.1875 0 0 Z" fill="#EAE9E3" transform="translate(361,380)"/>
<path d="M0 0 C0.99 1.32 1.98 2.64 3 4 C2.01 4.495 2.01 4.495 1 5 C0.67 5.99 0.34 6.98 0 8 C-0.45375 7.21625 -0.9075 6.4325 -1.375 5.625 C-2.88428742 2.96301969 -2.88428742 2.96301969 -5 1 C-3.35 0.67 -1.7 0.34 0 0 Z" fill="#E3DCC8" transform="translate(354,306)"/>
<path d="M0 0 C0 0.33 0 0.66 0 1 C-6.93 2.485 -6.93 2.485 -14 4 C-13.67 3.01 -13.34 2.02 -13 1 C-8.60563789 0.14256349 -4.47427924 -0.08948558 0 0 Z" fill="#EBE9E6" transform="translate(242,365)"/>
<path d="M0 0 C2.64 0 5.28 0 8 0 C8.33 0.99 8.66 1.98 9 3 C6.03 3 3.06 3 0 3 C0 2.01 0 1.02 0 0 Z" fill="#D7D2C3" transform="translate(664,441)"/>
<path d="M0 0 C0.66 0.33 1.32 0.66 2 1 C0.35 1.66 -1.3 2.32 -3 3 C-3 3.66 -3 4.32 -3 5 C-4.65 5.33 -6.3 5.66 -8 6 C-7 3 -7 3 -3.5625 1.25 C-2.386875 0.8375 -1.21125 0.425 0 0 Z" fill="#EEEAE1" transform="translate(584,384)"/>
<path d="M0 0 C0.33 0.99 0.66 1.98 1 3 C-2.63 3 -6.26 3 -10 3 C-5.78492722 -0.16130459 -4.93928888 -0.3367697 0 0 Z" fill="#2A2927" transform="translate(289,323)"/>
<path d="M0 0 C-3.53411321 2.12046792 -6.94393835 2.53199289 -11 3 C-10.67 2.01 -10.34 1.02 -10 0 C-6.58729758 -1.51675663 -3.55830874 -0.72783588 0 0 Z" fill="#272525" transform="translate(325,319)"/>
<path d="M0 0 C2.76223278 2.76223278 2.57856291 5.20706617 3 9 C2.34 8.34 1.68 7.68 1 7 C0.01 7.495 0.01 7.495 -1 8 C-0.67 5.36 -0.34 2.72 0 0 Z" fill="#0A0807" transform="translate(419,416)"/>
<path d="M0 0 C1.65 0 3.3 0 5 0 C5 0.99 5 1.98 5 3 C1.7 3 -1.6 3 -5 3 C-5 2.67 -5 2.34 -5 2 C-3.35 1.67 -1.7 1.34 0 1 C0 0.67 0 0.34 0 0 Z" fill="#272725" transform="translate(619,585)"/>
<path d="M0 0 C3.125 -0.1875 3.125 -0.1875 6 0 C6.33 0.99 6.66 1.98 7 3 C4.03 3 1.06 3 -2 3 C-1.34 2.01 -0.68 1.02 0 0 Z" fill="#302F2F" transform="translate(293,322)"/>
<path d="M0 0 C2.97 0.33 5.94 0.66 9 1 C4.78370866 3.10814567 2.60209225 3.17700355 -2 3 C-1.34 2.01 -0.68 1.02 0 0 Z" fill="#262624" transform="translate(303,321)"/>
<path d="M0 0 C0.33 0.66 0.66 1.32 1 2 C1.66 2 2.32 2 3 2 C3.33 2.99 3.66 3.98 4 5 C3.01 5.495 3.01 5.495 2 6 C2 5.01 2 4.02 2 3 C0.02 3.33 -1.96 3.66 -4 4 C-2.68 2.68 -1.36 1.36 0 0 Z" fill="#F0EBDF" transform="translate(305,249)"/>
<path d="M0 0 C1.32 0.33 2.64 0.66 4 1 C4.33 3.31 4.66 5.62 5 8 C2.74754119 5.31158141 1.11786042 3.35358125 0 0 Z" fill="#F5F3F0" transform="translate(278,296)"/>
<path d="M0 0 C3 1 3 1 4.75 3.4375 C5.36875 4.7059375 5.36875 4.7059375 6 6 C5.67 6.66 5.34 7.32 5 8 C2.5 5.6875 2.5 5.6875 0 3 C0 2.01 0 1.02 0 0 Z" fill="#E5DCC8" transform="translate(270,284)"/>
<path d="M0 0 C0.33 0 0.66 0 1 0 C0.67 2.31 0.34 4.62 0 7 C-1.32 6.34 -2.64 5.68 -4 5 C-3.34 3.68 -2.68 2.36 -2 1 C-2 1.66 -2 2.32 -2 3 C-1.34 3 -0.68 3 0 3 C0 2.01 0 1.02 0 0 Z" fill="#E4DBC6" transform="translate(309,215)"/>
</svg>